<?xml version="1.0" standalone="no"?>
<!DOCTYPE svg PUBLIC "-//W3C//DTD SVG 20010904//EN"
 "http://www.w3.org/TR/2001/REC-SVG-20010904/DTD/svg10.dtd">
<svg version="1.0" xmlns="http://www.w3.org/2000/svg"
 width="1690.000000pt" height="1728.000000pt" viewBox="0 0 1690.000000 1728.000000"
 preserveAspectRatio="xMidYMid meet">
<metadata>
Created by potrace 1.16, written by Peter Selinger 2001-2019
</metadata>
<g transform="translate(0.000000,1728.000000) scale(0.100000,-0.100000)"
fill="#000000" stroke="none">
<path d="M0 16466 c0 -642 3 -816 13 -820 9 -5 9 -7 -1 -12 -17 -8 -18 -474 0
-492 9 -9 9 -15 0 -24 -9 -9 -12 -98 -12 -339 l0 -328 38 6 c20 3 39 8 42 10
5 4 6 8 9 33 0 6 4 9 9 8 18 -4 40 15 35 30 -5 12 -2 14 11 9 11 -5 15 -3 10
4 -4 7 -1 10 7 7 8 -3 19 2 24 9 9 11 11 10 12 -8 1 -12 10 -31 20 -41 18 -17
21 -17 61 -2 23 10 42 23 42 30 0 7 -17 27 -38 44 l-37 31 30 25 c17 13 47 32
67 41 21 9 38 20 38 25 0 4 9 8 20 8 11 0 20 5 20 10 0 6 6 10 13 9 6 -1 21
-1 32 0 16 1 17 3 5 11 -19 12 -7 23 25 23 32 0 44 -11 25 -23 -11 -7 -12 -11
0 -25 11 -13 10 -18 -4 -28 -16 -12 -16 -14 -2 -26 9 -7 13 -17 10 -22 -8 -13
-44 9 -44 28 0 13 -7 14 -42 9 -79 -12 -108 -27 -108 -56 0 -41 26 -50 124
-41 48 5 89 11 93 15 3 3 1 6 -5 6 -7 0 -12 7 -12 15 0 17 25 11 53 -13 25
-22 21 -35 -8 -30 -14 3 -28 1 -31 -4 -3 -4 -10 -6 -15 -3 -5 4 -9 2 -9 -3 0
-6 -6 -10 -12 -9 -62 2 -79 -3 -76 -24 2 -12 15 -31 30 -42 27 -20 28 -20 41
-3 12 17 14 17 20 2 8 -21 24 -21 30 2 2 9 3 3 2 -14 -4 -44 11 -66 23 -34 5
14 7 30 4 35 -3 6 1 5 8 -2 11 -10 10 -17 -4 -39 -13 -19 -21 -23 -29 -15 -20
20 -37 12 -37 -19 l0 -30 -65 0 c-36 0 -64 3 -64 8 1 4 1 16 0 27 -1 18 -2 18
-18 2 -16 -16 -16 -19 -3 -27 12 -8 9 -10 -11 -10 -35 0 -33 26 3 48 25 14 29
22 24 46 -4 16 -7 30 -9 31 -1 1 -23 0 -49 -3 -44 -4 -48 -6 -48 -30 0 -24 -1
-24 -18 -9 -24 22 -32 21 -32 -2 0 -10 18 -30 40 -46 44 -30 49 -41 23 -41
-10 0 -44 -4 -75 -8 -49 -6 -58 -5 -58 8 0 9 -5 16 -12 16 -6 0 -22 10 -35 21
-24 24 -25 23 -37 -33 -8 -34 -31 -36 -57 -5 -20 24 -26 9 -9 -24 8 -13 7 -19
0 -19 -6 0 -9 -22 -8 -55 1 -30 6 -55 10 -55 4 0 8 -9 8 -20 0 -11 16 -40 35
-66 37 -48 43 -64 24 -64 -8 0 -8 -4 1 -15 10 -12 7 -15 -14 -21 -36 -9 -45 1
-39 46 5 32 3 40 -11 40 -14 0 -16 -110 -16 -1325 0 -1027 3 -1325 12 -1325 9
0 9 -3 0 -12 -8 -8 -12 -46 -12 -106 0 -88 1 -95 25 -114 34 -27 34 -71 0 -86
-23 -10 -25 -17 -25 -71 l0 -59 53 54 52 54 53 -17 c29 -9 51 -22 49 -27 -2
-6 -23 -14 -47 -18 -25 -4 -69 -23 -100 -42 l-55 -34 0 -930 c0 -512 3 -933 7
-937 4 -4 14 0 23 9 9 9 21 16 26 16 19 0 67 -30 73 -45 11 -31 6 -75 -9 -81
-15 -6 -69 5 -108 21 -16 7 -17 -2 -17 -98 0 -58 4 -108 9 -111 26 -17 50 22
66 104 13 67 15 71 43 68 20 -2 28 -10 30 -27 3 -15 14 -27 33 -34 17 -7 27
-17 24 -24 -3 -7 -8 -20 -11 -28 -4 -11 0 -15 16 -15 18 0 20 -3 11 -14 -9
-10 -9 -16 -1 -21 29 -18 -4 -27 -105 -28 l-110 -2 1 -105 c1 -94 21 -265 39
-320 7 -23 -12 -28 -21 -5 -4 8 -9 15 -13 15 -8 0 -8 -72 0 -85 4 -5 15 -39
26 -75 36 -113 25 -189 -18 -137 -18 21 -18 18 -19 -125 l0 -148 40 0 c33 0
40 -4 40 -19 0 -10 6 -21 14 -24 13 -5 22 -36 32 -112 3 -22 12 -45 19 -51 8
-6 16 -37 19 -70 5 -55 22 -138 48 -225 6 -20 8 -41 4 -47 -6 -10 21 -101 35
-116 5 -6 9 -17 9 -25 0 -9 9 -38 20 -66 12 -27 18 -38 15 -22 -3 15 -1 27 5
27 5 0 10 -9 10 -19 0 -11 3 -21 7 -23 19 -8 81 -162 123 -303 12 -38 25 -79
30 -90 21 -47 31 -162 24 -255 -5 -52 -10 -83 -12 -67 -2 15 -7 27 -12 27 -5
0 -12 10 -16 22 -4 12 -17 31 -30 41 -13 10 -24 26 -25 35 0 10 -4 6 -8 -8 -4
-14 -5 -55 -2 -92 5 -54 12 -73 33 -95 14 -15 33 -50 42 -77 9 -26 29 -67 45
-90 43 -63 78 -163 102 -296 21 -109 20 -105 30 -89 7 10 8 1 4 -27 -5 -33 -3
-43 10 -48 9 -3 22 -3 27 1 7 3 8 1 4 -5 -4 -7 -17 -12 -29 -13 -12 0 -16 -3
-9 -6 6 -2 15 -22 18 -44 4 -21 10 -39 14 -39 4 0 10 -21 14 -47 12 -95 21
-134 31 -131 6 2 10 -10 10 -25 1 -16 6 -31 12 -35 7 -4 14 -49 17 -107 3 -55
10 -145 16 -200 11 -104 5 -199 -11 -160 -11 28 -11 37 1 30 5 -3 10 1 10 10
0 9 -5 13 -11 10 -7 -5 -9 8 -5 41 4 35 3 40 -3 19 -7 -26 -9 -28 -16 -11 -5
11 -3 26 3 37 17 27 15 79 -2 79 -8 0 -17 12 -19 27 -2 16 -4 8 -4 -17 0 -24
2 -39 5 -32 2 6 8 12 13 12 12 0 8 -53 -5 -62 -13 -8 8 -137 28 -176 11 -21
12 -54 5 -157 -4 -71 -12 -146 -18 -165 -9 -32 -9 -33 4 -16 8 11 15 26 15 34
0 7 4 11 9 8 10 -7 7 -144 -4 -220 -7 -44 -9 -46 -25 -31 -9 8 -19 13 -21 11
-2 -2 -5 98 -7 222 -3 248 -7 282 -28 282 -8 0 -14 5 -14 10 0 6 -6 10 -14 10
-8 0 -16 3 -19 8 -2 4 -2 0 1 -8 3 -8 6 -24 7 -35 1 -11 5 -27 8 -35 13 -37
16 -81 5 -74 -8 5 -9 -2 -4 -22 13 -59 17 -150 8 -189 l-10 -40 -1 40 c-1 22
-8 52 -15 67 -10 18 -15 59 -15 115 0 49 -4 126 -10 173 -5 47 -10 93 -10 103
-1 9 -8 17 -16 17 -11 0 -12 -5 -6 -23 13 -33 25 -346 12 -327 -5 8 -8 39 -6
69 3 64 -3 91 -20 91 -7 0 -16 11 -19 25 -4 14 -11 23 -16 20 -6 -4 -8 21 -5
66 8 118 -13 63 -38 -103 -7 -42 -15 -80 -20 -84 -4 -4 -7 -26 -7 -48 0 -44
-27 -107 -48 -114 -8 -2 -12 8 -12 33 0 21 -7 83 -15 139 -14 97 -18 133 -33
313 -4 45 -11 85 -16 90 -11 11 1 -322 13 -345 16 -31 29 -156 21 -202 -4 -25
-8 -39 -9 -32 0 6 -6 12 -12 12 -10 0 -7 -70 6 -123 4 -14 2 -28 -4 -31 -6 -4
-11 -38 -11 -77 l0 -69 -29 0 c-22 0 -34 8 -50 33 -33 53 -58 78 -73 72 -16
-6 -18 20 -4 43 4 7 2 19 -4 27 -8 10 -9 15 -2 15 6 0 10 15 10 33 -1 17 3
146 7 285 5 172 4 252 -3 252 -6 0 -13 26 -17 57 -4 32 -13 79 -22 105 -8 27
-12 63 -9 80 l6 33 -11 -28 c-9 -22 -8 -41 5 -85 29 -105 37 -321 24 -641 -4
-95 -8 -175 -10 -176 -2 -2 -15 -1 -31 2 -19 4 -27 11 -27 26 0 11 -10 52 -22
91 -19 59 -22 90 -20 186 5 207 5 234 -3 298 -4 34 -12 62 -16 62 -13 0 -11
-20 6 -105 12 -57 13 -84 5 -112 -5 -21 -11 -51 -13 -68 -2 -16 -5 -5 -6 25
-1 39 -7 62 -22 80 l-21 25 7 -25 c9 -39 25 -128 35 -205 5 -38 16 -104 25
-145 9 -41 16 -81 17 -87 1 -7 5 -13 10 -13 4 0 8 -7 8 -15 0 -8 -8 -15 -19
-15 -15 0 -19 10 -24 53 -3 28 -17 79 -31 112 l-25 60 -1 -2252 0 -2253 8450
0 8450 0 0 918 0 918 -47 16 c-98 33 -99 33 -137 -19 -19 -27 -63 -94 -98
-151 -35 -57 -73 -115 -85 -130 -13 -15 -23 -33 -23 -39 0 -7 -4 -13 -10 -13
-5 0 -13 -12 -16 -27 -4 -16 -18 -42 -31 -59 -12 -17 -23 -41 -23 -52 0 -12
-4 -22 -10 -22 -5 0 -12 -11 -16 -25 -3 -14 -10 -25 -15 -25 -5 0 -6 -7 -3
-15 9 -23 -33 -19 -59 6 -12 12 -30 24 -39 28 -16 6 -16 9 -2 36 8 17 22 59
30 95 9 36 19 69 24 75 9 11 15 63 12 106 -1 18 -12 31 -37 45 -33 17 -35 22
-35 68 0 63 27 301 49 434 9 56 15 102 13 102 -2 0 -40 -9 -84 -21 -44 -11
-86 -18 -93 -15 -7 2 -16 22 -19 43 -13 71 -20 69 -79 -29 l-56 -92 -21 49
c-12 28 -27 80 -32 118 -8 51 -14 67 -27 67 -9 0 -42 16 -74 35 -74 45 -110
45 -155 3 l-34 -33 7 45 c4 25 14 56 22 68 13 22 12 27 -13 63 -15 22 -31 42
-36 45 -36 23 -599 -383 -742 -535 -17 -17 -33 -31 -36 -31 -4 0 -17 33 -30
73 -118 381 -178 495 -292 551 -42 21 -66 26 -130 26 -77 0 -78 0 -83 28 -24
118 -45 174 -113 299 -22 39 -44 85 -50 102 l-11 30 -93 -25 c-132 -36 -264
-102 -336 -169 l-60 -55 -51 71 c-54 73 -106 108 -163 109 -38 0 -35 -17 9
-62 45 -47 38 -60 -10 -18 l-35 31 -7 -58 c-11 -94 -42 -239 -80 -373 -20 -69
-43 -167 -53 -218 l-17 -93 -35 3 c-33 3 -39 10 -95 100 -33 54 -63 98 -66 98
-3 0 -13 -26 -23 -57 -31 -99 -57 -163 -66 -163 -5 0 -22 45 -39 99 -36 115
-63 147 -115 135 -36 -8 -46 -19 -46 -56 0 -19 -5 -28 -15 -28 -13 0 -15 -7
-9 -38 4 -20 10 -41 14 -47 8 -10 15 -43 25 -107 6 -47 -10 -50 -29 -5 -9 20
-15 25 -15 14 -1 -15 -4 -16 -22 -7 -11 6 -58 15 -103 20 -69 7 -101 17 -187
59 -57 27 -176 74 -264 104 -88 30 -195 69 -238 86 -64 26 -91 31 -158 31 -79
0 -82 1 -247 79 -410 194 -596 266 -746 291 -56 9 -59 8 -109 -27 -78 -53 -98
-74 -92 -94 7 -22 -34 -34 -146 -44 -70 -6 -79 -5 -115 17 -57 36 -117 57
-179 64 -59 7 -85 -4 -85 -36 0 -23 19 -30 88 -30 74 -1 105 -22 100 -71 -3
-31 -6 -34 -39 -37 -34 -3 -37 -1 -43 29 l-6 32 -94 -7 -95 -7 -34 53 c-18 29
-38 67 -44 83 -9 28 -14 30 -74 36 -36 4 -89 14 -119 23 -30 9 -92 20 -137 23
l-83 6 0 -37 c0 -35 -1 -36 -39 -36 -22 0 -44 6 -51 15 -10 12 -10 15 3 15 28
0 38 25 22 56 -8 16 -15 37 -15 46 0 9 -5 20 -10 23 -15 9 -165 314 -180 368
-15 49 -30 52 -61 14 -16 -20 -17 -20 -42 19 -42 64 -58 161 -60 361 0 158 2
187 22 253 12 41 26 108 31 149 13 107 17 119 61 169 31 35 38 50 32 66 -11
30 -8 110 6 143 6 15 34 43 61 61 28 17 50 38 51 45 0 14 38 45 89 73 46 25
46 25 48 94 3 89 13 100 93 100 50 0 73 -5 89 -18 21 -17 27 -17 62 -5 21 7
52 26 70 43 17 16 37 30 43 30 7 0 15 6 18 13 5 15 -19 598 -33 777 -12 160
-12 337 1 385 24 92 29 146 19 207 -7 45 -6 64 2 69 12 7 7 101 -12 209 -5 30
-16 100 -25 155 -9 55 -21 109 -25 120 -5 11 -12 44 -15 73 -4 29 -13 76 -21
105 -8 28 -14 80 -14 115 0 34 -7 88 -15 120 -25 99 -46 231 -52 321 l-6 86
71 0 c98 0 112 14 112 112 0 63 -8 94 -55 230 -31 87 -74 202 -97 256 -30 71
-39 103 -32 114 5 8 36 34 68 56 l58 42 34 -40 c18 -22 56 -86 83 -142 53
-108 77 -131 68 -65 -10 71 -47 237 -62 275 -18 46 -19 57 -2 57 7 0 35 18 62
40 69 55 62 50 140 108 39 28 75 55 80 59 6 5 40 30 77 56 36 26 72 53 80 60
7 7 33 28 58 47 25 19 47 37 50 40 3 3 41 32 85 65 74 55 179 141 233 190 l22
21 -21 79 c-12 44 -24 94 -28 110 -4 17 -12 30 -19 30 -16 0 -209 -165 -216
-185 -7 -16 -127 -108 -236 -181 -36 -24 -67 -46 -70 -49 -3 -3 -23 -19 -45
-35 -22 -16 -61 -49 -87 -72 -26 -24 -54 -43 -63 -43 -15 0 -64 -27 -75 -41
-3 -3 -42 -32 -87 -63 l-82 -56 -45 70 c-25 39 -53 73 -61 77 -9 3 -22 18 -31
34 -8 16 -19 29 -24 29 -23 0 -9 -81 44 -265 5 -20 -29 -56 -67 -71 -17 -6
-64 113 -97 253 -12 48 -26 93 -31 99 -5 6 -25 78 -44 160 -20 82 -51 199 -70
259 -80 265 -77 247 -86 470 -7 151 -6 240 3 318 10 96 10 122 -6 215 -10 59
-23 110 -29 114 -6 3 -12 54 -15 112 -3 59 -9 109 -13 112 -5 3 -9 20 -9 39 0
19 -4 36 -9 40 -5 3 -12 18 -16 35 -3 16 -22 48 -41 72 -18 24 -39 57 -44 75
-7 19 -20 33 -34 37 -24 6 -96 90 -96 113 0 20 34 16 65 -9 l28 -22 -6 49 c-4
26 -8 49 -10 49 -38 15 -117 58 -117 65 0 5 9 11 20 14 26 7 53 71 45 106 -6
29 24 79 73 117 22 18 26 28 23 63 -1 22 4 53 12 68 23 44 47 136 47 180 0 40
-1 41 -40 48 -34 6 -41 11 -48 38 -6 23 -15 33 -33 35 -32 5 -39 13 -46 52
-10 65 -46 106 -122 137 -39 15 -71 32 -71 36 0 5 8 6 18 3 42 -13 83 -16 77
-6 -3 5 -13 10 -21 10 -9 0 -30 11 -47 24 -66 49 -98 59 -192 61 -65 1 -97 5
-113 17 -22 15 -20 15 43 22 35 4 77 4 92 0 21 -4 24 -3 13 5 -14 10 -71 20
-147 25 -42 3 -122 38 -113 49 6 8 -60 57 -77 57 -16 0 -36 37 -29 55 2 7 -9
34 -26 59 -31 48 -58 74 -39 38 29 -55 3 -55 -56 -1 -25 22 -46 39 -48 37 -10
-10 30 -97 62 -136 38 -46 38 -63 -1 -43 -27 15 -73 80 -82 116 -6 23 -51 62
-60 52 -3 -3 -21 -1 -40 3 l-36 8 24 -25 c12 -13 21 -28 19 -31 -2 -4 8 -13
23 -20 28 -14 36 -42 11 -42 -9 0 -35 10 -58 21 -34 18 -39 19 -28 5 8 -10 28
-24 44 -32 16 -9 26 -18 23 -21 -3 -3 -39 11 -80 32 -57 29 -78 35 -92 27 -15
-9 -4 -17 71 -52 50 -23 119 -51 155 -62 69 -21 120 -47 120 -60 0 -11 -34
-10 -46 2 -11 11 -145 45 -216 55 -39 5 -48 3 -48 -9 0 -8 -2 -21 -5 -29 -5
-11 12 -15 88 -21 100 -7 178 -25 205 -49 10 -8 31 -19 47 -24 17 -5 36 -21
43 -36 11 -23 10 -29 -9 -48 -21 -21 -21 -23 -4 -35 13 -10 16 -21 11 -46 -3
-18 -9 -52 -12 -76 -4 -23 -10 -44 -13 -46 -4 -3 -6 -65 -5 -138 2 -122 0
-138 -20 -174 -27 -49 -61 -58 -76 -19 -8 20 -15 25 -30 20 -14 -5 -26 0 -38
15 l-18 22 -27 -28 c-15 -14 -27 -34 -27 -43 0 -14 -11 -16 -75 -13 -72 4 -75
3 -106 -27 -26 -27 -30 -37 -25 -63 3 -17 6 -60 6 -95 0 -51 3 -63 13 -55 14
11 47 1 65 -21 7 -9 51 -34 98 -56 64 -31 84 -46 84 -61 0 -23 -25 -26 -65 -8
-19 8 -31 9 -43 2 -9 -6 -34 -9 -55 -6 -21 2 -44 -1 -52 -8 -8 -7 -44 -15 -79
-17 -61 -5 -65 -4 -96 26 -18 17 -30 34 -27 38 4 3 33 8 65 11 31 2 62 9 69
14 7 5 25 9 40 8 46 -3 47 -1 17 26 l-28 27 -58 -31 c-31 -18 -77 -35 -100
-38 -38 -7 -86 -34 -59 -34 6 0 11 -11 11 -25 0 -14 -4 -25 -10 -25 -5 0 -7 6
-4 14 9 24 -12 27 -32 4 -11 -12 -13 -18 -6 -14 8 5 20 0 31 -13 12 -13 30
-21 50 -21 57 0 113 -42 95 -72 -4 -6 -31 -8 -64 -6 -60 4 -89 -9 -67 -31 9
-9 6 -13 -10 -17 -14 -4 -26 -19 -33 -40 -7 -19 -20 -39 -31 -44 -10 -6 -19
-17 -19 -25 0 -18 -148 -165 -166 -165 -7 0 -26 -13 -42 -29 -16 -16 -48 -34
-71 -41 -23 -6 -51 -20 -61 -30 -17 -17 -19 -17 -23 -2 -4 15 -5 14 -6 -2 -1
-14 -6 -17 -22 -13 -15 4 -33 -6 -66 -36 -49 -45 -49 -44 -19 -147 21 -72 24
-217 6 -250 -25 -47 -30 -60 -30 -78 0 -15 -13 -20 -82 -30 -46 -7 -119 -19
-163 -27 -139 -28 -228 -36 -310 -30 -44 3 -102 1 -130 -4 -107 -21 -395 15
-550 69 -33 11 -118 36 -190 55 -206 54 -306 91 -510 188 l-130 62 -115 -3
c-113 -3 -116 -4 -205 -48 -49 -24 -100 -44 -111 -44 -12 0 -27 -7 -34 -15 -7
-8 -19 -15 -26 -15 -8 0 -31 -9 -51 -20 -21 -11 -43 -20 -48 -20 -6 0 -33 -20
-61 -45 -84 -77 -106 -85 -243 -85 -112 0 -226 16 -276 40 -11 5 -49 21 -84
35 -108 42 -216 124 -381 287 -85 84 -182 182 -215 217 -33 35 -92 86 -132
114 -40 27 -69 55 -66 60 3 6 1 7 -6 3 -15 -10 -27 22 -13 36 8 8 16 7 29 -3
16 -13 17 -12 4 4 -7 9 -19 17 -26 17 -8 0 -11 8 -8 21 4 12 11 18 20 15 8 -3
11 -1 8 4 -3 6 -13 10 -22 10 -10 0 -13 6 -9 16 3 8 2 12 -4 9 -5 -3 -10 4
-10 17 1 46 -7 94 -19 116 -7 13 -11 30 -10 40 3 32 -1 42 -17 42 -14 0 -14
-3 -4 -15 11 -13 10 -14 -3 -10 -17 7 -29 63 -15 71 5 3 7 13 4 22 -2 10 -8
28 -11 41 -5 16 -4 21 4 17 16 -10 19 55 6 124 -4 19 -11 37 -16 40 -5 3 -7
16 -4 28 2 13 0 20 -4 17 -15 -8 -23 28 -9 37 8 6 4 7 -11 3 -21 -6 -23 -4
-18 14 3 11 1 21 -3 21 -5 0 -12 -16 -16 -35 -3 -19 -11 -35 -16 -35 -5 0 -6
-9 -3 -20 9 -28 -14 -26 -24 3 -9 24 -5 40 9 32 5 -3 11 -1 15 5 3 5 1 10 -4
10 -6 0 -11 7 -11 15 0 8 6 15 14 15 15 0 32 37 22 47 -3 4 -6 -2 -6 -11 0
-10 -6 -16 -12 -14 -9 3 -14 33 -16 93 -2 56 -7 92 -15 97 -16 11 10 28 31 21
12 -5 14 1 10 30 -2 19 0 33 4 31 4 -3 8 13 8 35 0 34 3 41 20 41 11 0 20 5
20 11 0 7 -7 8 -18 4 -9 -4 -23 -8 -31 -9 -19 -3 -44 -63 -28 -69 8 -2 6 -9
-6 -21 -9 -10 -17 -22 -17 -27 0 -5 -6 -9 -14 -9 -8 0 -16 -6 -19 -12 -7 -20
-27 62 -27 110 0 31 4 42 15 42 8 0 15 -9 15 -20 0 -24 6 -25 26 -6 8 8 12 21
9 29 -3 7 -1 26 5 41 13 35 2 56 -14 24 -6 -12 -22 -24 -34 -26 -18 -3 -22 1
-22 26 0 36 22 56 50 47 32 -10 34 17 6 68 -27 48 -34 87 -15 87 7 0 9 -10 5
-25 -8 -32 11 -33 40 -2 39 42 40 50 5 42 -20 -4 -31 -3 -31 4 0 6 9 11 19 11
12 0 23 11 30 31 14 40 14 52 1 44 -13 -8 -52 4 -45 14 2 5 -4 16 -14 25 -18
17 -20 17 -24 -1 -3 -10 -5 -4 -6 15 -1 25 -5 32 -21 32 -24 0 -24 3 1 -54 28
-65 23 -100 -16 -104 -16 -2 -32 -7 -35 -11 -3 -5 -22 -6 -42 -3 -32 3 -38 8
-38 28 0 12 5 26 11 30 8 5 6 10 -5 16 -11 6 -16 23 -16 53 0 24 -4 47 -10 50
-16 10 -12 43 8 54 15 9 15 12 2 21 -11 7 -12 12 -3 18 8 5 9 13 3 22 -13 20
-12 33 0 25 6 -3 10 -1 10 4 0 6 -5 11 -11 11 -5 0 -7 5 -3 11 4 7 9 7 13 1
11 -17 51 -25 51 -9 0 18 29 44 55 49 11 2 19 10 17 17 -1 7 2 19 8 26 12 14
11 93 -2 101 -4 3 -8 9 -8 15 0 5 9 4 20 -3 11 -7 20 -22 20 -33 0 -15 2 -17
9 -6 6 10 12 5 22 -18 8 -17 18 -31 22 -31 5 0 20 -9 34 -20 14 -11 20 -20 14
-20 -6 0 -14 -8 -18 -17 -3 -10 -13 -26 -21 -35 -13 -15 -13 -18 -1 -18 8 0
24 16 37 36 22 34 22 37 7 61 -15 22 -15 27 -2 40 12 12 19 13 36 4 11 -7 21
-17 21 -23 0 -7 5 -6 15 2 27 22 18 41 -16 35 l-31 -6 4 51 c3 49 -7 68 -18
33 -11 -36 -22 -48 -43 -49 -12 -1 -21 5 -21 13 0 7 -7 25 -16 38 -9 15 -14
37 -12 54 2 17 1 28 -4 25 -4 -3 -8 -11 -8 -19 0 -8 -7 -11 -20 -8 -15 4 -17
9 -10 23 7 13 3 23 -15 40 -25 23 -25 23 -41 4 -8 -10 -13 -14 -10 -8 3 6 -12
24 -34 39 -46 32 -51 44 -13 37 18 -3 30 1 40 13 17 24 17 45 -1 45 -8 0 -18
4 -21 10 -4 6 18 9 59 7 36 -1 66 -5 67 -9 1 -5 2 -11 3 -15 2 -5 6 -30 10
-56 8 -48 22 -69 55 -86 14 -8 17 -5 16 17 0 21 4 26 20 24 11 -2 26 -11 33
-21 8 -12 21 -17 37 -13 26 4 35 22 13 22 -7 1 -2 6 12 13 14 7 26 19 26 28 1
14 -4 15 -37 6 -25 -6 -39 -15 -39 -26 0 -10 -3 -12 -8 -5 -4 6 -15 13 -25 17
-15 6 -16 10 -5 27 7 11 22 23 33 26 20 5 33 44 14 44 -5 0 -9 7 -9 15 0 8 6
15 13 15 9 0 9 2 0 8 -28 18 -60 195 -43 237 4 12 3 30 -5 45 -27 53 -47 138
-41 167 4 18 1 48 -8 74 -9 24 -16 56 -16 72 0 15 -4 27 -9 27 -5 0 -11 8 -13
17 -3 16 -5 16 -18 2 -8 -9 -24 -14 -38 -11 -17 3 -23 1 -18 -7 4 -6 14 -11
22 -11 15 0 52 -66 41 -76 -9 -9 -27 5 -27 22 0 17 -23 44 -38 44 -12 0 -20
21 -15 38 3 6 13 12 22 12 10 0 26 9 36 20 10 11 22 17 26 14 5 -3 9 0 9 5 0
6 -6 11 -14 11 -8 0 -18 5 -22 12 -5 8 14 9 74 4 45 -3 95 -9 112 -12 19 -4
30 -2 30 5 0 6 -6 11 -14 11 -20 0 -48 29 -40 41 6 10 -32 49 -48 49 -4 0 -8
7 -8 15 0 8 5 15 10 15 24 0 6 17 -40 39 l-50 24 26 23 25 24 -33 0 c-56 0
-79 10 -76 33 5 35 56 41 233 28 144 -11 222 -25 241 -44 12 -12 129 -8 142 5
17 17 15 43 -8 88 -29 58 -26 76 15 90 19 6 37 15 40 20 3 5 -15 29 -40 55
l-46 46 -104 -46 c-57 -25 -106 -45 -109 -45 -3 0 -34 -14 -68 -30 -34 -17
-68 -28 -74 -26 -15 6 -24 65 -13 93 12 32 3 48 -37 69 -19 10 -34 24 -34 31
0 13 35 27 49 19 5 -3 14 0 20 8 25 29 137 39 371 33 124 -4 250 -11 280 -16
30 -6 123 -17 205 -26 83 -9 166 -20 185 -25 19 -4 62 -11 95 -15 l60 -6 -65
43 c-86 56 -97 63 -147 88 -24 12 -43 26 -43 31 0 5 -6 9 -13 9 -8 0 -49 17
-93 39 -169 82 -326 141 -379 141 -16 0 -25 3 -21 7 11 11 118 72 139 79 42
15 9 24 -88 24 -111 0 -124 6 -82 41 19 16 20 20 7 29 -8 6 -26 13 -40 16 -59
15 -54 28 72 173 l29 33 162 -6 c289 -11 706 -25 960 -32 261 -8 272 -6 321
39 23 20 41 20 -191 -8 -67 -8 -129 -15 -138 -15 -30 0 -5 18 35 25 22 4 40
10 40 15 0 4 10 10 22 13 59 16 -18 17 -343 7 -330 -11 -355 -11 -364 5 -5 10
-22 35 -38 56 -25 35 -31 39 -71 39 -25 0 -48 5 -52 11 -3 6 -25 19 -49 29
-58 25 -70 45 -22 37 20 -3 37 -2 39 3 7 19 79 12 167 -16 24 -8 71 -19 105
-25 33 -5 93 -15 131 -22 123 -20 430 -13 540 13 136 32 219 50 236 50 10 0
19 3 19 8 0 4 22 13 49 19 27 6 78 25 113 42 71 34 209 88 346 135 l92 32 -47
21 c-72 33 -162 61 -229 72 -32 6 -86 15 -119 21 -72 12 -357 14 -370 2 -6 -5
-43 -15 -82 -21 -40 -7 -75 -17 -79 -22 -3 -5 -12 -9 -20 -9 -24 0 -124 -51
-174 -88 -39 -29 -56 -49 -105 -125 -8 -13 -48 -18 -209 -26 -110 -6 -201 -9
-203 -8 -2 2 -5 27 -8 55 -7 65 1 72 112 106 82 26 176 60 250 92 17 8 36 14
41 14 12 0 161 76 179 92 25 20 12 25 -79 32 -51 4 -112 10 -135 13 -29 4 -43
2 -43 -6 0 -6 8 -11 18 -11 9 0 39 -11 66 -24 44 -21 47 -24 26 -31 -12 -4
-41 -2 -64 4 -22 5 -80 13 -128 16 -49 4 -90 11 -93 15 -3 5 9 25 26 44 l31
36 177 0 176 1 15 32 15 33 -90 -4 c-49 -2 -98 -8 -108 -14 -9 -5 -23 -6 -29
-2 -6 4 18 22 58 42 l69 36 -35 7 c-19 4 -36 12 -38 18 -2 5 -9 8 -16 5 -12
-4 -54 32 -45 39 2 2 14 11 27 19 31 21 7 29 -33 12 -16 -7 -24 -13 -17 -14 6
0 12 -7 12 -15 0 -8 -6 -15 -12 -15 -7 -1 -38 -7 -69 -14 l-57 -14 0 27 c1 26
40 95 50 86 3 -3 8 1 12 10 4 11 2 14 -7 9 -9 -5 -9 -4 1 7 6 7 12 21 12 31 0
28 37 23 44 -7 4 -14 13 -25 21 -25 11 0 12 5 5 25 -8 20 -6 27 10 35 31 16
50 12 60 -16 11 -29 34 -28 36 2 1 10 2 25 3 32 1 9 18 12 61 11 36 -1 65 2
72 9 18 18 48 14 49 -5 0 -15 2 -14 9 3 5 13 20 23 37 26 15 3 34 7 42 9 27 8
22 -21 -6 -31 -15 -6 -63 -29 -106 -51 -43 -23 -86 -39 -96 -36 -18 4 -33 -8
-44 -35 -3 -10 -13 -18 -20 -18 -8 0 -20 -6 -26 -14 -15 -18 13 -29 57 -21 17
3 42 1 56 -5 17 -6 26 -6 26 0 0 6 7 10 15 10 8 0 15 4 15 9 0 5 15 14 33 20
38 13 128 84 141 112 13 27 26 24 26 -7 0 -14 4 -23 10 -19 6 3 15 -6 20 -20
10 -26 10 -26 39 -9 18 11 28 25 28 40 0 13 -3 21 -8 18 -5 -3 -13 5 -18 18
-12 31 -57 72 -70 63 -6 -3 -11 -2 -11 3 0 5 13 12 30 16 35 7 39 27 9 57 -20
20 -20 21 -1 15 11 -4 31 -2 46 4 18 6 25 6 21 0 -3 -6 3 -10 15 -10 12 0 18
-5 15 -10 -4 -7 -12 -7 -25 0 -10 5 -25 10 -32 9 -15 0 28 -19 59 -25 12 -2
25 0 28 6 3 5 2 10 -3 10 -16 0 -23 32 -10 47 9 11 9 16 -2 23 -17 10 -13 15
17 24 17 6 23 3 23 -8 0 -9 -5 -16 -11 -16 -7 0 0 -11 15 -25 15 -14 24 -30
20 -37 -5 -8 1 -9 22 -4 16 4 24 3 17 -2 -9 -6 -8 -12 7 -25 23 -19 40 -23 22
-5 -7 7 -12 20 -12 29 0 10 -6 19 -13 22 -7 3 -1 9 13 15 14 5 32 17 39 26 11
13 16 14 29 4 13 -11 14 -8 8 24 -8 43 9 61 24 24 5 -14 11 -53 12 -86 1 -33
5 -54 9 -48 4 6 11 8 17 4 6 -4 10 2 9 13 0 10 -6 17 -12 15 -7 -3 -10 8 -7
31 2 19 8 32 13 29 5 -3 9 -1 9 5 0 6 13 17 30 26 37 19 46 52 26 99 -10 25
-21 36 -35 36 -19 0 -21 6 -21 55 0 37 -5 57 -14 62 -10 5 -17 33 -22 78 -4
39 -14 84 -23 100 -20 38 -20 66 -1 82 13 11 11 16 -15 40 -21 19 -29 33 -26
52 3 30 -14 19 -22 -14 -3 -12 -5 -7 -6 15 l-2 35 -15 -27 c-8 -16 -17 -28
-20 -28 -3 0 -2 6 2 13 5 9 4 9 -5 1 -14 -13 -3 -46 13 -38 6 4 3 -1 -6 -12
-17 -18 -18 -18 -33 1 -18 25 -18 30 0 48 18 19 7 31 -13 14 -13 -10 -15 -9
-10 3 4 11 -1 15 -18 15 -13 0 -26 -6 -29 -13 -3 -9 1 -11 15 -7 11 4 20 2 20
-4 0 -6 -4 -11 -10 -11 -19 0 -10 -21 15 -32 13 -6 22 -15 19 -20 -3 -5 -11
-4 -19 2 -9 8 -11 5 -7 -15 4 -24 22 -36 22 -14 0 5 5 7 11 4 7 -5 5 -13 -6
-25 -9 -10 -12 -20 -7 -21 6 -2 13 -20 16 -40 5 -33 3 -38 -28 -54 -32 -17
-36 -17 -59 -2 -24 15 -26 15 -30 -1 -3 -9 -5 7 -6 36 -1 53 -16 81 -43 83 -7
0 -4 4 7 9 19 8 19 9 1 9 -11 1 -27 8 -36 16 -13 12 -22 13 -48 3 -34 -13 -39
-22 -20 -34 8 -5 6 -10 -8 -16 -15 -7 -14 -7 6 -4 24 5 25 3 23 -42 -1 -26 1
-37 3 -24 7 27 24 29 24 2 0 -15 7 -20 26 -20 21 0 23 -2 12 -14 -20 -20 -108
-57 -108 -45 0 6 -4 7 -10 4 -5 -3 -10 -27 -10 -52 l0 -47 -21 23 c-16 17 -24
20 -29 10 -5 -7 -6 -18 -3 -26 7 -17 -11 -17 -26 1 -10 11 -8 16 5 24 21 12
12 42 -12 42 -13 0 -15 7 -9 38 9 47 13 51 30 29 12 -17 13 -17 20 0 6 17 7
17 19 1 17 -23 22 -23 29 2 3 10 -1 27 -9 37 -7 10 -14 15 -14 11 0 -4 -11 -3
-24 2 -15 5 -27 5 -35 -3 -8 -8 -11 -5 -12 14 -1 13 -1 27 -1 31 2 13 -29 30
-60 33 -28 2 -32 6 -33 31 0 23 4 29 22 29 12 0 25 4 29 8 4 4 2 7 -5 7 -7 0
-9 9 -5 25 l6 25 -207 0 -206 0 20 -26 c12 -15 21 -33 21 -40 0 -8 4 -14 8
-14 5 0 17 -15 27 -34 11 -19 28 -37 39 -40 19 -5 19 -6 2 -25 -10 -11 -23
-18 -27 -15 -10 6 -12 -9 -3 -19 9 -9 64 24 64 38 0 7 23 11 62 10 51 -1 64
-5 76 -23 19 -28 34 -28 31 1 -4 31 10 67 25 67 21 0 26 -11 14 -30 -9 -13 -7
-27 5 -59 21 -51 22 -105 2 -124 -13 -13 -13 -16 0 -21 17 -6 21 -36 5 -36 -5
0 -10 -4 -10 -10 0 -5 7 -7 15 -4 8 4 15 2 15 -4 0 -11 -49 -26 -57 -18 -8 8
-33 -21 -33 -37 0 -8 -11 -26 -25 -41 -28 -30 -31 -48 -12 -64 16 -13 67 -3
67 13 0 20 25 36 37 24 7 -7 6 -27 -3 -65 -11 -47 -10 -56 2 -61 8 -3 21 0 29
7 11 9 15 9 15 1 0 -8 5 -9 19 -1 11 5 29 10 40 10 13 0 21 6 21 17 0 14 2 15
13 4 10 -11 10 -14 -1 -18 -6 -3 -12 -11 -12 -19 0 -16 -41 -28 -76 -21 -20 3
-28 -1 -37 -20 -9 -20 -16 -24 -38 -19 -22 4 -26 2 -22 -13 7 -26 -42 -57 -61
-39 -7 7 -11 19 -8 27 3 8 0 11 -7 7 -7 -4 -11 0 -11 12 0 11 9 22 20 25 12 3
20 14 20 25 0 11 8 23 18 25 11 3 7 5 -10 6 -14 0 -28 7 -31 14 -2 6 -7 -3
-11 -20 -8 -34 -23 -42 -43 -22 -6 6 -16 8 -22 4 -8 -4 -5 -12 9 -23 11 -9 31
-38 44 -63 22 -43 23 -47 7 -62 -9 -9 -22 -23 -29 -32 -13 -15 -15 -15 -26 0
-7 9 -19 16 -27 14 -7 -2 -23 0 -34 4 -17 6 -21 16 -21 61 -1 47 2 55 20 60
14 4 17 9 10 16 -7 7 -21 5 -44 -7 -19 -9 -29 -18 -22 -21 7 -2 12 -8 12 -14
0 -5 -8 -7 -19 -3 -13 4 -20 0 -24 -16 -5 -19 -8 -20 -21 -8 -51 46 -61 49
-53 17 5 -19 5 -20 -10 -5 -12 12 -13 21 -5 45 7 21 7 33 -1 41 -14 14 -14
108 0 122 13 13 -15 69 -34 69 -13 0 -53 35 -53 45 0 3 -16 29 -35 57 -24 37
-33 59 -29 75 4 13 1 30 -5 37 -7 8 -10 25 -7 38 3 12 7 37 10 55 l4 31 -71 4
c-40 2 -90 0 -112 -4 -22 -3 -60 -9 -85 -13 -82 -11 -165 -26 -195 -35 -16 -5
-75 -23 -130 -40 -55 -16 -116 -33 -135 -36 -19 -4 -46 -13 -60 -20 -56 -29
-304 -105 -395 -121 -16 -3 -34 -9 -40 -13 -5 -5 -28 -11 -50 -15 -110 -18
-102 -18 -78 -3 12 7 47 30 77 51 31 21 80 51 108 66 29 15 62 32 73 38 81 45
321 141 405 163 25 7 52 16 61 20 21 11 263 71 309 76 18 3 36 7 39 9 2 3
-277 5 -622 5 l-625 0 -89 -53 c-48 -30 -118 -70 -155 -91 -66 -36 -67 -38
-53 -59 8 -12 42 -47 76 -77 62 -55 100 -118 112 -186 6 -31 3 -34 -81 -87
-123 -77 -144 -86 -212 -94 -69 -7 -76 -20 -39 -79 l21 -34 -104 0 c-93 0
-108 3 -152 28 -65 36 -73 50 -59 104 7 25 8 47 3 52 -5 5 -66 10 -135 11 -69
1 -128 5 -132 9 -11 11 -23 6 -23 -9 0 -8 5 -15 11 -15 5 0 7 -4 4 -10 -3 -5
-19 -10 -36 -10 l-29 0 24 49 c14 27 60 83 103 126 79 78 124 110 138 97 5 -4
5 -1 1 6 -4 6 -2 12 3 12 6 0 20 9 32 21 13 13 24 17 32 11 7 -5 23 -12 36
-15 21 -5 23 -3 18 22 -6 26 -2 31 54 60 69 36 77 37 95 14 8 -11 13 -13 14
-5 0 18 18 15 23 -5 3 -10 4 0 3 22 -1 35 2 40 24 43 21 3 22 2 11 -11 -16
-19 -22 -118 -8 -134 14 -18 34 -16 56 6 23 23 19 84 -8 115 -15 17 -15 18 3
15 11 -2 31 -14 44 -27 19 -17 28 -20 36 -11 8 8 8 13 -1 16 -8 3 -9 13 -2 36
5 18 9 33 9 34 0 1 -7 0 -15 -3 -9 -4 -15 -1 -15 7 1 8 37 31 80 53 44 21 80
40 80 42 0 2 -121 4 -269 4 l-269 0 -11 -33 c-6 -18 -41 -64 -78 -102 -95 -98
-110 -110 -125 -98 -27 21 -49 24 -47 5 4 -47 -3 -81 -22 -103 -12 -13 -26
-31 -33 -40 -12 -17 -67 -39 -98 -39 -17 0 -17 2 2 37 28 52 26 56 -19 49 -34
-5 -39 -4 -36 12 2 9 4 21 4 25 1 5 9 6 20 2 13 -4 20 0 24 16 3 12 10 18 17
14 6 -3 20 4 31 17 l20 23 -7 -25 c-6 -22 -5 -23 10 -8 9 9 16 26 16 37 0 12
4 21 9 21 5 0 36 22 68 50 32 27 64 50 71 50 6 0 12 5 12 11 0 5 -5 7 -12 3
-7 -4 -2 9 10 30 12 20 22 39 22 42 0 2 -109 4 -243 4 -203 0 -246 -3 -265
-16 -20 -14 -22 -14 -22 0 0 9 -4 16 -10 16 -5 0 -10 -7 -10 -15 0 -8 -4 -15
-10 -15 -5 0 -10 -7 -10 -15 0 -18 16 -20 24 -2 5 9 7 9 12 -1 4 -9 9 -10 19
-2 11 9 12 7 8 -9 -7 -26 -31 -35 -51 -19 -12 10 -16 10 -19 1 -3 -7 -13 -13
-24 -13 -10 0 -19 -2 -19 -4 0 -11 37 -85 41 -82 2 2 3 -32 1 -77 -4 -82 -4
-82 33 -125 20 -23 35 -47 33 -53 -4 -12 -93 80 -94 99 -3 41 -3 41 -34 29
-29 -11 -33 -10 -70 31 -22 23 -44 42 -49 42 -5 0 -13 9 -16 20 -7 23 19 57
30 40 9 -15 46 -2 69 24 10 12 23 20 30 18 8 -2 7 0 -1 9 -9 9 -17 9 -36 -4
-26 -17 -97 -18 -109 -2 -4 5 -11 -2 -17 -15 -7 -18 -10 -20 -10 -7 -1 9 -4
17 -8 17 -5 0 -21 12 -38 25 l-30 26 32 -6 c22 -4 35 -2 45 10 7 9 27 29 43
45 l30 30 -227 0 -228 0 0 -814z m4697 514 c3 -11 10 -20 17 -21 6 0 1 -4 -11
-9 -13 -5 -23 -17 -23 -27 0 -15 -2 -15 -14 3 -17 22 -31 14 -22 -13 4 -13 15
-18 43 -17 37 2 63 -10 63 -27 0 -14 -28 -11 -34 4 -3 6 -4 3 -1 -8 5 -20 -30
-53 -42 -41 -6 6 -63 -54 -63 -65 0 -16 -33 -18 -47 -3 -14 13 -17 13 -35 -3
-15 -14 -21 -15 -27 -4 -6 9 -11 10 -15 2 -4 -6 -3 -11 3 -11 5 0 11 -10 13
-22 2 -13 8 -21 13 -18 6 3 9 9 7 14 -3 10 17 36 29 36 5 0 9 -6 9 -13 0 -8 9
-22 20 -32 24 -22 25 -32 5 -52 -18 -17 -23 -15 -28 13 -3 23 -6 25 -34 18
-12 -3 -23 -13 -25 -22 -2 -11 -14 -16 -40 -17 -20 0 -35 2 -32 4 2 2 -4 10
-14 17 -16 13 -16 13 1 14 21 0 23 20 1 20 -8 0 -13 4 -9 10 3 5 13 7 23 4 14
-5 14 -4 2 4 -12 9 -12 14 5 32 16 18 17 24 6 42 -10 17 -10 19 1 16 7 -3 23
9 36 26 25 34 28 44 9 27 -8 -6 -17 -8 -20 -4 -4 3 -7 -3 -7 -15 0 -40 -15
-23 -28 31 -19 85 -18 89 26 81 47 -8 49 -10 29 -32 -16 -17 -14 -18 19 -20
20 -2 46 -9 58 -17 13 -8 25 -12 28 -9 4 3 15 1 26 -5 18 -10 19 -8 14 35 -4
37 -1 49 18 69 28 30 40 31 47 5z m-2494 -534 c34 4 91 10 125 14 49 5 65 4
69 -7 3 -7 -13 -55 -35 -106 -22 -50 -50 -115 -61 -143 -46 -120 -60 -141 -94
-147 -18 -3 -40 -8 -49 -12 -13 -5 -20 0 -28 20 -6 15 -22 42 -36 58 -22 26
-25 38 -22 78 l5 47 -43 -3 c-24 -1 -45 0 -47 4 -2 3 -2 0 -1 -7 2 -7 -12 -20
-30 -29 -50 -23 -61 -54 -37 -104 l20 -40 -32 -20 c-32 -20 -75 -35 -81 -28
-18 24 -187 332 -183 335 7 7 397 74 422 73 16 -1 16 -2 3 -6 -18 -5 -33 -33
-18 -33 6 0 11 -12 11 -27 2 -24 2 -25 6 -5 2 12 9 22 14 22 18 0 8 63 -17
106 -23 39 -26 53 -22 111 2 39 9 68 16 71 7 2 12 9 12 16 0 7 15 33 33 57
l32 44 3 -172 2 -173 63 6z m1528 181 c-8 -8 -11 -8 -11 1 0 7 -5 12 -10 12
-7 0 -7 -7 0 -20 6 -11 8 -25 4 -31 -4 -6 -2 -14 4 -18 7 -4 8 -12 2 -21 -8
-12 -13 -13 -29 -3 -17 11 -18 10 -12 -15 6 -23 12 -26 37 -23 16 1 32 8 35
13 4 5 9 -2 11 -16 3 -14 1 -26 -4 -26 -5 0 -6 -4 -3 -10 3 -5 17 -10 30 -10
16 0 25 -7 29 -26 9 -33 38 -64 44 -46 2 6 11 12 20 12 12 0 13 -3 4 -12 -7
-7 -12 -20 -12 -30 0 -9 -9 -22 -21 -28 -16 -9 -19 -17 -14 -40 3 -16 2 -31
-4 -35 -19 -11 -12 -58 11 -82 19 -20 20 -26 8 -33 -33 -20 -273 -64 -306 -56
-13 4 -24 2 -24 -2 0 -5 -17 -12 -37 -15 -99 -16 -136 -24 -236 -51 -32 -9
-63 -16 -70 -16 -14 1 -57 86 -57 112 0 10 16 25 38 35 20 10 49 30 63 46 31
33 71 34 78 2 3 -16 1 -17 -12 -6 -14 11 -16 9 -14 -8 1 -12 7 -21 14 -21 7 0
13 -6 13 -12 0 -9 3 -9 9 1 5 8 7 21 4 30 -4 11 -1 10 9 -3 14 -17 19 -18 47
-7 32 14 42 44 19 55 -10 5 -10 7 0 12 17 8 16 64 -2 64 -20 0 -31 -21 -16
-30 14 -8 5 -30 -12 -30 -7 0 -8 14 -4 39 4 27 2 41 -7 45 -6 3 -1 3 13 0 21
-4 22 -3 8 6 -27 17 -22 30 11 30 36 0 48 -15 24 -29 -15 -8 -15 -10 -2 -11 8
0 20 5 27 12 16 16 17 -15 0 -41 -12 -20 -5 -51 12 -51 6 0 8 5 5 10 -3 6 -1
10 5 10 7 0 8 6 2 18 -11 20 -5 42 12 42 6 0 20 14 30 31 18 30 18 31 -3 50
-11 10 -25 19 -31 19 -7 0 -10 6 -7 13 2 6 14 11 25 9 28 -4 27 6 -3 43 l-25
30 0 -25 c0 -35 -13 -52 -34 -44 -13 5 -14 9 -5 20 8 10 8 14 0 14 -6 0 -11 7
-11 16 0 11 6 14 20 9 11 -4 20 -2 20 4 0 6 13 11 28 11 59 0 41 15 -30 25
-54 7 -73 14 -73 25 0 16 -2 16 167 22 56 2 102 9 111 16 12 10 16 9 22 -5 6
-17 7 -17 16 -1 6 10 9 24 8 30 -3 29 2 40 16 34 10 -3 15 1 16 12 0 10 5 5
11 -11 7 -21 7 -32 -1 -40z m-596 -856 c20 -34 -84 -125 -213 -187 -43 -20
-79 -40 -82 -44 -3 -3 -48 -29 -100 -56 -52 -27 -99 -53 -105 -57 -54 -41
-136 -97 -143 -97 -5 0 -21 9 -36 21 -75 59 -110 236 -67 335 12 27 29 59 37
72 l15 22 344 -1 c190 0 347 -4 350 -8z m-1777 -263 c66 -31 104 -66 97 -92
-2 -11 -2 -15 1 -8 11 23 26 12 20 -15 -3 -16 -3 -22 0 -15 3 6 10 12 15 12
16 0 10 -23 -12 -46 -24 -25 -20 -54 7 -54 13 0 14 3 4 15 -13 16 -6 35 14 35
17 0 26 -44 26 -120 0 -90 -5 -95 -51 -58 -28 23 -36 34 -27 40 9 5 10 8 1 8
-6 0 -14 12 -16 28 -4 25 -4 24 -6 -6 0 -21 -7 -35 -18 -39 -10 -4 -24 -14
-31 -22 -12 -14 -13 -12 -9 12 6 35 -1 35 -14 -2 -6 -17 -18 -31 -27 -33 -13
-3 -13 -6 4 -22 10 -11 20 -28 20 -38 1 -18 -6 -19 -155 -12 -86 4 -163 8
-171 10 -8 1 -18 3 -21 3 -4 1 -9 10 -12 21 -3 14 -14 20 -32 20 -25 0 -25 1
-11 22 9 12 16 28 16 34 0 20 -43 25 -62 7 -27 -24 -21 -6 21 72 25 45 46 71
57 71 11 1 24 2 30 3 7 1 26 15 43 33 27 28 34 31 59 22 16 -6 26 -16 23 -25
-11 -45 -13 -89 -3 -89 6 0 14 5 17 10 4 6 16 8 28 5 l22 -6 -22 18 c-21 17
-21 22 -11 62 10 41 10 45 -13 62 -31 24 -42 24 -29 0 17 -32 -4 -32 -30 0
-14 16 -30 29 -37 29 -7 0 -10 7 -7 15 4 9 11 14 18 13 6 -1 22 5 36 14 14 9
49 19 78 21 30 3 57 8 60 12 9 9 61 -4 110 -27z m695 -222 c95 -19 167 -49
203 -87 39 -40 39 -103 2 -175 -30 -60 -42 -75 -190 -242 l-29 -33 -177 2
c-150 1 -190 -2 -266 -21 -48 -11 -91 -18 -94 -15 -3 3 2 18 12 33 62 95 107
221 121 339 8 59 11 62 125 112 41 18 98 48 125 66 58 39 67 40 168 21z
m-1619 -167 c29 -13 25 -26 -11 -40 -27 -10 -22 -29 8 -29 11 0 17 -4 14 -10
-3 -6 1 -7 9 -4 13 5 16 -1 16 -29 0 -44 -15 -55 -42 -31 -11 11 -31 18 -46
16 -21 -2 -24 -1 -12 7 16 11 2 13 -107 15 -56 0 -63 8 -36 38 20 22 43 24 43
3 0 -24 19 -17 32 11 11 23 9 28 -12 45 l-25 19 72 0 c40 0 83 -5 97 -11z
m351 -569 c4 -6 11 -8 16 -5 5 3 6 0 3 -8 -3 -9 3 -17 18 -21 38 -10 42 -7 23
14 -21 23 -2 28 21 5 8 -8 21 -12 28 -9 7 3 16 -2 19 -10 4 -9 13 -16 21 -16
11 0 13 -6 6 -28 -4 -16 -6 -42 -4 -58 1 -15 -2 -34 -7 -40 -7 -8 -6 -14 1
-19 21 -13 28 6 34 95 4 49 11 91 14 93 4 3 19 7 33 11 24 5 27 3 33 -29 4
-19 13 -38 20 -42 13 -8 50 -73 44 -77 -2 -1 -21 -12 -42 -25 -30 -17 -41 -19
-47 -9 -4 7 -11 9 -16 5 -4 -5 -1 -12 7 -17 11 -7 9 -12 -11 -29 -13 -11 -33
-20 -44 -20 -38 0 -149 27 -153 38 -2 5 -18 7 -37 4 -19 -3 -47 0 -62 6 -16 6
-44 12 -63 14 -40 2 -50 11 -43 38 6 23 16 24 33 4 31 -38 40 -6 10 33 l-21
26 31 19 c26 17 34 18 61 7 36 -15 46 -8 31 24 -9 21 -8 25 6 29 28 8 31 7 37
-3z m845 -112 c0 -10 7 -33 16 -49 15 -30 10 -49 -20 -70 -5 -4 -2 -35 8 -73
9 -36 16 -69 16 -74 0 -9 -37 -25 -52 -23 -12 2 -9 -13 7 -36 8 -12 12 -29 9
-37 -6 -15 -12 -13 -49 9 -24 14 -46 25 -49 25 -2 0 -10 -17 -17 -37 -7 -21
-22 -59 -34 -84 -21 -46 -21 -46 -51 -34 -16 8 -24 14 -17 14 6 1 15 10 18 22
5 14 13 19 26 16 12 -3 20 2 25 15 20 64 -71 180 -180 230 l-56 25 28 25 c33
32 126 79 219 111 38 14 83 31 98 40 35 18 55 12 55 -15z m418 -284 c28 -14
52 -27 52 -30 0 -2 -22 -48 -50 -101 -27 -53 -50 -102 -50 -107 0 -6 -11 -24
-25 -40 -18 -21 -25 -25 -25 -13 0 18 -11 22 -24 10 -4 -4 -15 -8 -24 -8 -10
0 -16 -7 -15 -18 0 -11 -4 -16 -12 -14 -7 3 -38 11 -69 18 -38 9 -55 18 -51
26 3 9 -5 13 -23 13 -34 0 -59 15 -43 24 6 4 11 13 11 19 0 7 -5 4 -11 -5 -12
-21 -31 -24 -23 -4 3 7 -2 21 -11 30 -17 17 -12 38 8 35 7 -1 19 -1 27 0 12 1
12 3 -2 12 -9 5 -15 16 -12 23 3 8 -4 20 -16 26 -17 9 -19 15 -11 23 9 9 14 9
20 -1 7 -11 9 -11 14 1 3 9 -1 21 -9 28 -26 21 -6 22 22 0 33 -26 44 -27 44
-1 0 11 -4 20 -10 20 -5 0 -10 5 -10 10 0 18 17 10 28 -12 10 -22 11 -21 11
10 1 31 3 32 40 32 22 0 41 -5 43 -11 2 -6 32 -13 67 -16 l64 -6 -6 26 c-4 14
-10 33 -14 44 -7 17 -6 17 17 0 14 -10 49 -29 78 -43z m237 -1963 c6 -4 29
-13 53 -21 l42 -13 -20 -34 c-11 -19 -20 -43 -20 -54 0 -11 -10 -23 -22 -28
-13 -5 -34 -21 -47 -35 -16 -17 -35 -26 -55 -26 -17 0 -46 -4 -65 -10 l-34 -9
6 39 c3 22 3 40 0 40 -15 0 -63 -44 -88 -79 -15 -23 -33 -41 -39 -41 -16 1
-76 57 -76 72 0 7 -8 1 -18 -15 -16 -26 -21 -27 -71 -18 -3 1 5 10 17 21 12
12 22 25 22 30 0 5 14 19 31 31 26 18 35 20 50 11 27 -17 37 -15 44 8 6 19 23
39 71 82 11 9 25 24 32 32 10 12 18 14 32 6 26 -14 71 -13 69 3 -4 32 1 36 39
25 20 -5 42 -13 47 -17z m6709 -255 c50 -47 69 -85 55 -107 -5 -8 -8 -21 -8
-29 0 -10 3 -8 9 5 13 30 12 8 -2 -39 -13 -47 -54 -101 -63 -86 -3 6 -3 20 1
33 12 36 13 67 2 67 -5 0 -6 -9 -3 -21 5 -15 4 -19 -4 -15 -6 4 -11 25 -11 47
0 22 -4 38 -8 35 -5 -3 -18 5 -29 18 -15 17 -18 28 -11 40 7 13 5 22 -6 35 -9
10 -16 29 -16 43 0 21 4 25 24 21 13 -3 45 -24 70 -47z m-8158 -465 c0 -20 4
-45 9 -55 7 -16 5 -18 -8 -13 -8 3 -31 9 -50 12 l-35 7 20 -69 c12 -37 22 -69
24 -71 4 -6 62 27 70 39 4 8 -3 9 -27 4 -32 -7 -33 -7 -19 11 8 10 22 25 30
34 8 9 20 25 26 36 11 18 14 17 45 -17 20 -22 58 -46 91 -59 31 -12 64 -30 72
-39 15 -17 15 -19 0 -32 -10 -8 -23 -29 -31 -47 -10 -24 -19 -32 -29 -28 -9 3
-29 6 -45 6 l-29 0 20 40 c25 48 25 50 2 50 -11 0 -24 11 -30 25 -6 14 -16 25
-22 25 -16 0 -40 -56 -40 -94 0 -27 -3 -34 -15 -30 -8 4 -15 17 -15 30 0 24
-23 33 -35 14 -3 -5 -17 -10 -31 -10 l-24 0 20 -40 c27 -53 25 -68 -5 -40 -24
23 -25 23 -45 5 -22 -20 -25 -10 -11 28 11 27 5 39 -26 56 -32 16 -53 14 -53
-8 0 -19 -23 -45 -32 -36 -2 3 -50 7 -106 10 l-102 6 0 -28 c0 -38 10 -73 21
-73 5 0 9 9 9 20 0 13 7 20 20 20 18 0 20 -7 20 -58 0 -32 -6 -66 -13 -76 -13
-18 -16 -17 -75 4 -50 18 -60 25 -51 36 6 8 18 14 25 14 9 0 14 12 14 38 0 20
3 47 6 60 5 16 2 22 -9 22 -8 0 -18 -11 -21 -25 -4 -14 -11 -25 -17 -25 -9 0
-68 27 -78 36 -10 9 24 34 45 34 21 0 37 20 17 20 -5 0 -19 9 -32 19 -20 15
-22 21 -12 39 16 31 67 30 77 0 l8 -23 5 23 c7 27 27 26 23 -1 -1 -12 3 -17
14 -15 18 3 18 4 59 93 37 84 65 116 93 109 16 -5 22 -14 22 -33 0 -15 5 -32
12 -39 9 -9 6 -12 -14 -12 -19 0 -29 -7 -34 -22 -6 -20 -8 -20 -19 -5 -21 29
-24 19 -8 -28 8 -25 18 -45 22 -45 7 0 26 20 85 88 15 17 17 25 8 34 -20 20
-13 28 26 28 40 0 67 20 91 67 11 21 12 22 54 6 40 -15 43 -19 43 -52z m1540
-107 c3 -65 23 -152 38 -172 7 -10 5 -16 -5 -23 -11 -7 -11 -9 3 -9 13 0 17
-7 16 -26 -2 -22 -6 -25 -30 -22 -18 3 -28 0 -28 -8 0 -21 -16 -25 -45 -10
-15 8 -35 11 -44 8 -12 -5 -10 -8 9 -10 39 -6 49 -22 13 -22 -36 0 -44 15 -36
64 6 41 24 46 46 14 l15 -23 22 21 c17 17 20 26 12 40 -6 11 -13 42 -17 69 -3
28 -14 64 -22 81 -20 39 -11 93 12 74 12 -10 16 -9 21 4 10 27 16 12 20 -50z
m-2145 -16 c25 -8 26 -12 22 -56 -4 -36 -13 -54 -37 -77 -17 -16 -39 -41 -48
-54 -13 -19 -22 -22 -43 -17 -18 5 -25 12 -21 21 4 11 -2 15 -19 15 -29 0 -28
-2 -14 39 9 25 16 31 39 31 33 0 49 18 29 31 -11 6 -9 13 9 32 12 13 22 31 22
41 0 13 5 16 18 11 9 -4 29 -11 43 -17z m2437 -109 c7 -11 14 -47 14 -80 0
-33 5 -62 9 -65 5 -3 9 -10 9 -15 0 -6 -5 -7 -11 -4 -6 4 -13 -2 -16 -13 -5
-20 -5 -20 -36 -1 -18 10 -45 19 -60 19 -26 0 -27 1 -12 16 12 12 13 19 5 24
-16 10 11 52 45 70 18 9 25 22 25 42 0 33 10 36 28 7z m-1506 -32 c4 -7 8 -19
8 -28 0 -9 8 -23 18 -32 17 -16 21 -15 58 23 45 45 60 49 70 18 3 -13 13 -30
21 -39 12 -15 9 -24 -31 -80 -58 -84 -86 -109 -130 -116 -32 -5 -36 -3 -36 15
0 11 11 29 24 39 21 16 23 23 17 73 -6 51 -8 55 -37 61 -17 3 -36 9 -43 13
-16 10 -33 55 -25 68 8 12 76 0 86 -15z m312 -33 c16 -42 -18 -94 -62 -94 -17
0 -22 -4 -19 -14 3 -8 9 -31 13 -50 6 -34 5 -36 -19 -36 -14 0 -29 -4 -32 -10
-9 -15 -55 -12 -61 4 -9 23 89 180 114 184 11 2 26 10 32 18 16 18 26 18 34
-2z m1319 -346 c39 -40 73 -83 53 -68 -18 14 -18 13 -11 -20 11 -53 28 -83 48
-86 11 -1 22 -6 25 -10 4 -4 0 -5 -10 -1 -26 9 -28 -1 -8 -46 10 -23 26 -77
36 -119 11 -43 22 -78 27 -78 4 0 7 -4 7 -10 0 -5 16 -45 36 -87 20 -43 42
-91 50 -108 38 -84 93 -269 84 -284 -8 -14 -9 -14 -10 1 0 12 -5 15 -17 11
-10 -4 -14 -2 -10 4 3 5 -7 23 -23 38 -17 16 -30 34 -30 40 0 7 -9 20 -20 30
-11 10 -20 24 -20 32 0 7 -4 13 -10 13 -5 0 -10 6 -10 14 0 8 -8 21 -18 28
-10 7 -33 35 -52 62 -19 28 -43 58 -52 68 -10 9 -20 29 -24 43 -3 14 -10 25
-15 25 -12 0 -44 72 -41 91 2 11 -6 19 -23 23 -20 5 -25 12 -24 39 0 17 -2 46
-6 62 -4 17 -3 25 2 18 5 -6 9 9 10 38 1 27 -2 49 -7 49 -6 0 -10 16 -10 35 0
28 4 35 19 35 11 0 22 4 25 9 9 14 -42 0 -55 -15 -9 -12 -15 -10 -35 9 -13 12
-24 29 -24 37 0 13 -1 13 -10 0 -10 -16 -15 -8 -23 42 -3 23 0 28 27 34 17 4
53 7 81 6 34 -1 45 2 35 8 -11 7 -11 10 -2 10 7 0 23 -10 35 -22z m6039 -4
c52 -17 83 -46 75 -69 -5 -11 -21 -15 -64 -15 -49 0 -67 -6 -115 -35 -55 -34
-60 -35 -100 -25 -52 14 -80 37 -73 60 3 9 -3 25 -15 35 -11 10 -20 22 -20 27
0 37 223 53 312 22z m-6298 -46 c-4 -7 -3 -8 5 -4 18 12 41 -13 41 -44 0 -15
9 -35 20 -45 11 -10 20 -24 20 -32 0 -7 4 -13 9 -13 5 0 19 -19 30 -43 23 -48
28 -117 9 -117 -18 1 -54 31 -67 58 -7 12 -18 22 -26 22 -8 0 -15 6 -15 14 0
8 -13 28 -30 46 -16 18 -30 36 -30 42 0 5 -16 24 -35 43 -27 24 -32 34 -21 38
8 3 16 1 19 -6 2 -8 9 -6 21 6 9 9 15 21 12 26 -6 10 9 19 32 20 8 1 10 -4 6
-11z m480 -154 c39 -39 171 -139 271 -205 332 -219 420 -270 567 -333 199 -84
316 -110 469 -104 135 5 149 11 256 108 42 39 80 70 85 70 4 0 27 9 51 19 50
23 163 63 232 84 28 8 88 18 134 21 81 5 85 5 145 -28 100 -56 387 -160 606
-221 113 -31 243 -70 290 -86 103 -36 295 -54 528 -51 122 1 152 -1 152 -12 0
-7 -11 -49 -25 -92 -56 -172 -65 -244 -54 -384 6 -63 13 -122 16 -130 10 -24
33 -138 44 -224 10 -70 9 -81 -5 -91 -9 -7 -16 -25 -16 -40 0 -28 33 -143 50
-176 6 -11 2 -35 -11 -68 -21 -56 -24 -96 -9 -106 6 -3 10 -21 10 -39 0 -18 3
-36 7 -39 3 -4 8 -17 9 -30 1 -12 10 -78 19 -147 9 -70 14 -155 11 -192 -5
-66 -4 -68 18 -68 41 0 48 -21 53 -170 3 -77 10 -143 14 -146 5 -3 9 -20 9
-38 0 -19 7 -53 15 -77 14 -39 14 -55 -4 -183 -11 -78 -23 -168 -26 -201 -8
-67 -23 -91 -65 -100 -16 -3 -44 -21 -63 -38 -18 -18 -51 -40 -73 -49 -143
-61 -231 -102 -251 -118 -13 -10 -88 -42 -167 -71 -114 -42 -146 -58 -148 -74
-3 -22 -103 -63 -358 -146 -176 -57 -424 -141 -615 -206 -126 -44 -255 -77
-264 -68 -2 3 1 10 7 18 7 8 8 26 2 54 -10 45 5 98 34 123 9 7 16 18 16 26 0
7 9 18 21 24 11 7 18 14 15 17 -6 6 38 89 60 114 8 8 14 21 14 28 0 13 12 43
56 137 13 28 24 57 24 65 0 8 7 28 16 44 8 17 16 39 17 50 2 11 15 39 30 63
15 23 26 46 23 51 -3 4 2 20 10 36 8 16 16 36 17 46 2 9 15 33 30 52 15 20 27
44 27 54 0 11 6 28 14 38 8 11 12 25 9 32 -3 7 0 13 6 13 6 0 11 7 11 16 0 9
8 28 18 42 10 15 24 46 32 70 7 23 17 42 22 42 4 0 8 7 8 16 0 18 25 101 46
152 8 18 14 42 14 52 0 11 5 20 10 20 6 0 10 9 10 20 0 12 8 33 17 47 17 25
23 66 24 142 0 24 5 35 18 38 23 6 41 44 41 88 0 18 6 35 12 37 9 3 10 10 3
25 -18 37 -48 13 -69 -55 -13 -40 -25 -62 -37 -65 -20 -6 -27 9 -7 15 15 5 1
28 -17 28 -10 0 -11 -9 -5 -35 4 -20 4 -38 -1 -41 -5 -3 -9 4 -9 16 0 12 -4
18 -10 15 -5 -3 -10 -18 -10 -32 0 -18 -4 -24 -15 -19 -10 4 -17 -6 -25 -35
-6 -22 -8 -44 -5 -49 4 -6 1 -9 -6 -8 -7 2 -15 -5 -17 -15 -2 -11 -12 -27 -23
-38 -10 -10 -16 -25 -13 -34 3 -8 -5 -28 -19 -45 -14 -16 -29 -40 -32 -52 -14
-50 -63 -153 -87 -187 -10 -13 -18 -34 -18 -46 0 -12 -9 -32 -20 -45 -11 -13
-23 -35 -27 -49 -3 -14 -15 -39 -25 -56 -10 -16 -18 -40 -18 -52 0 -13 -4 -23
-10 -23 -5 0 -14 -19 -20 -42 -6 -24 -15 -50 -20 -60 -8 -15 -26 -60 -93 -240
-12 -32 -25 -58 -29 -58 -5 0 -8 -8 -8 -19 0 -27 -29 -49 -40 -31 -25 41 -23
580 4 865 2 22 7 79 11 128 4 48 12 90 17 93 5 3 4 12 -2 19 -7 8 -8 20 -3 27
9 14 46 193 58 283 2 17 9 50 15 75 16 61 24 160 13 160 -27 0 -71 -191 -93
-403 -5 -49 -13 -94 -18 -100 -12 -16 -33 -127 -26 -139 3 -5 1 -14 -4 -21 -5
-7 -9 -25 -10 -42 0 -16 -7 -84 -17 -150 -9 -66 -18 -149 -21 -185 -19 -294
-24 -400 -24 -514 0 -119 -15 -274 -42 -431 -5 -33 -10 -78 -10 -100 0 -22 -2
-67 -5 -100 -4 -54 -7 -62 -33 -77 -16 -9 -68 -70 -117 -135 l-88 -118 -7 45
c-4 25 -12 46 -18 48 -15 5 -13 139 3 145 6 2 8 8 4 13 -14 15 -25 -16 -32
-94 -6 -60 -4 -78 7 -86 17 -13 19 -48 12 -164 -5 -66 -9 -82 -20 -78 -8 3
-14 -1 -14 -9 0 -8 -9 -29 -19 -47 -11 -18 -25 -70 -32 -116 -14 -90 -24 -112
-54 -116 -10 -1 -21 -9 -23 -17 -3 -11 -1 -11 7 1 6 8 11 10 11 4 0 -6 -7 -17
-15 -24 -14 -12 -16 -9 -14 21 3 52 -1 68 -10 44 -5 -12 -7 5 -6 43 1 34 0 62
-2 62 -2 0 -8 -10 -13 -22 -8 -21 -9 -20 -9 9 -1 17 4 35 9 38 6 4 8 10 5 15
-3 5 6 32 20 60 17 34 25 63 22 83 -4 31 -4 30 -5 -5 -1 -21 -5 -38 -10 -38
-4 0 -13 -14 -21 -31 -10 -23 -16 -28 -22 -18 -7 12 -11 11 -19 -1 -8 -11 -10
-7 -6 18 2 18 -7 76 -20 130 -21 80 -53 285 -69 442 -2 19 -11 69 -21 110 -9
41 -24 116 -33 165 -9 50 -22 99 -28 110 -20 35 -29 264 -39 940 -6 397 -8
430 -32 458 -14 16 -17 16 -24 2 -5 -8 -15 -15 -23 -15 -18 0 -23 -44 -30
-270 -7 -228 -10 -252 -40 -285 -24 -25 -24 -30 -27 -218 -1 -105 -1 -255 0
-331 2 -147 -3 -165 -41 -144 -26 14 -28 8 -13 -43 8 -25 17 -77 21 -115 3
-38 15 -96 25 -129 24 -77 39 -161 54 -315 6 -59 4 -56 -32 35 -8 22 -26 64
-39 94 -13 29 -33 81 -44 115 -11 33 -24 70 -29 81 -8 21 -19 52 -20 60 -3 17
-70 191 -105 270 -45 100 -56 128 -67 171 -7 27 -15 51 -19 54 -3 3 -9 17 -13
33 -3 15 -18 52 -31 82 -14 29 -25 56 -25 59 0 5 -44 106 -60 136 -4 9 -11 30
-15 49 -4 18 -13 44 -21 59 -8 15 -14 35 -14 45 0 9 -4 17 -9 17 -5 0 -11 10
-14 23 -28 109 -39 167 -52 260 -8 60 -22 125 -31 145 -37 86 -42 99 -48 129
-4 18 -12 35 -17 38 -5 4 -9 13 -9 22 0 9 -10 30 -23 47 -13 17 -30 45 -39 61
-8 17 -27 53 -41 80 -18 36 -27 74 -33 135 -4 46 -17 118 -30 158 -22 68 -54
225 -69 335 -6 46 -7 48 -24 32 -17 -15 -19 -14 -24 5 -3 11 -12 20 -21 20 -9
0 -16 6 -16 14 0 15 -79 214 -104 261 -9 17 -16 37 -16 46 0 8 -9 34 -20 57
-11 22 -20 45 -20 51 0 5 -12 33 -26 63 -78 161 -88 221 -72 426 7 87 0 115
-61 239 -12 23 -21 49 -21 58 0 8 -4 15 -9 15 -5 0 -11 13 -14 29 -3 16 -13
36 -22 44 -8 9 -15 23 -15 32 0 9 -8 30 -17 46 -23 38 -6 58 25 29 11 -11 24
-20 27 -20 7 0 118 -113 153 -156 13 -16 29 -40 35 -53 6 -13 31 -42 54 -65
23 -22 43 -45 43 -50 0 -10 44 -66 83 -106 15 -15 27 -32 27 -38 0 -5 11 -21
25 -36 14 -15 25 -30 25 -35 0 -4 15 -25 33 -47 44 -53 77 -101 77 -112 0 -5
11 -19 25 -32 14 -13 25 -34 25 -47 0 -13 5 -23 10 -23 6 0 10 -9 10 -19 0
-11 4 -22 8 -25 4 -3 14 -28 22 -56 8 -28 18 -53 22 -56 4 -3 8 -16 8 -29 0
-13 5 -27 10 -30 6 -3 10 -19 10 -34 0 -15 9 -54 19 -87 10 -32 29 -93 41
-134 30 -104 58 -196 77 -254 9 -27 22 -74 29 -105 7 -31 21 -87 32 -126 10
-38 27 -106 37 -150 10 -44 22 -85 27 -91 5 -7 4 -23 -3 -38 -10 -20 -10 -31
0 -49 14 -25 41 -32 41 -10 0 7 4 13 8 13 5 0 16 -35 26 -77 19 -80 32 -113
48 -124 10 -6 64 -151 75 -199 3 -14 10 -30 14 -36 5 -6 12 -33 15 -60 3 -27
17 -77 31 -111 21 -51 29 -63 48 -63 31 0 50 70 35 132 -5 24 -19 84 -31 133
-11 50 -26 104 -34 120 -7 17 -19 52 -27 79 -10 37 -24 58 -55 84 -40 34 -42
37 -36 82 4 33 0 56 -12 80 -9 18 -19 42 -20 54 -2 12 -11 41 -21 66 -9 25
-20 88 -25 140 -5 52 -13 96 -19 98 -5 2 -13 21 -16 43 -4 21 -10 39 -14 39
-4 0 -11 17 -15 37 -4 21 -12 49 -20 63 -7 14 -18 50 -25 80 -7 30 -18 71 -25
90 -7 19 -21 64 -31 100 -9 36 -21 69 -26 75 -4 5 -8 24 -8 41 0 18 -4 35 -9
38 -5 4 -12 41 -16 84 -6 80 -30 162 -46 162 -5 0 -9 7 -9 15 0 8 -7 15 -15
15 -12 0 -15 12 -13 63 2 51 -5 86 -42 197 -24 74 -46 137 -50 140 -3 3 -14
28 -24 55 -10 28 -25 57 -32 66 -8 8 -14 20 -14 26 0 6 -3 13 -7 15 -21 9
-124 233 -140 306 -3 12 -10 22 -15 22 -5 0 -8 8 -6 18 2 12 -3 16 -17 15 -11
-1 -14 0 -7 3 6 3 12 12 12 20 0 14 42 -19 104 -82z m-2074 -98 c0 -7 15 -26
33 -42 46 -40 56 -58 27 -49 -17 5 -21 3 -19 -12 2 -10 0 -31 -4 -46 -7 -25
-11 -28 -34 -22 -30 7 -53 33 -46 51 2 7 0 15 -6 19 -6 3 -11 29 -11 57 0 45
2 50 20 45 11 -3 20 -1 20 4 0 5 5 9 10 9 6 0 10 -6 10 -14z m213 -448 c33
-74 94 -285 118 -405 4 -22 9 -88 11 -145 2 -83 0 -110 -15 -140 -30 -64 -36
-55 -58 87 -13 87 -28 126 -64 165 -13 14 -35 61 -50 105 -14 44 -30 89 -34
100 -18 42 -42 132 -48 175 -4 35 -1 49 11 59 14 12 16 11 16 -5 0 -11 7 -28
16 -39 8 -11 19 -36 25 -57 5 -22 16 -38 24 -38 17 0 17 4 16 113 -1 42 1 77
4 77 3 0 16 -24 28 -52z m5690 -3265 c-8 -21 -21 -45 -28 -53 -7 -8 -22 -42
-33 -75 -11 -33 -32 -87 -47 -120 -15 -33 -36 -80 -47 -104 -10 -24 -28 -64
-38 -90 -10 -25 -49 -111 -85 -191 -80 -172 -115 -256 -115 -270 0 -6 -20 -52
-44 -103 -49 -103 -61 -150 -46 -178 6 -10 36 -33 68 -49 31 -17 90 -51 129
-75 62 -38 77 -43 99 -35 14 6 72 10 128 10 90 0 106 -3 127 -21 13 -11 38
-27 56 -36 25 -11 41 -32 68 -87 19 -40 35 -84 35 -98 0 -41 14 -70 58 -114
47 -48 75 -126 76 -219 1 -74 -9 -113 -31 -117 -14 -2 -16 -13 -14 -60 2 -56
-18 -118 -39 -118 -6 0 -10 -29 -10 -65 0 -36 4 -65 9 -65 4 0 18 48 31 108
12 59 25 111 30 115 4 4 19 3 33 -4 22 -10 27 -19 27 -50 0 -84 -23 -296 -35
-324 -7 -16 -64 -89 -126 -161 -63 -72 -127 -148 -142 -168 -15 -20 -41 -43
-56 -51 l-29 -14 10 42 c7 31 24 58 67 102 66 67 84 96 75 120 -4 9 1 36 11
61 9 25 15 48 12 51 -11 11 -47 -78 -47 -117 0 -36 -7 -47 -69 -112 -58 -62
-69 -80 -75 -119 -6 -39 -13 -51 -49 -77 -76 -55 -121 -107 -166 -190 -43 -81
-53 -90 -79 -73 -15 9 8 58 70 153 16 26 31 60 33 75 1 15 31 87 67 158 67
132 87 196 109 338 9 60 9 87 0 117 -6 22 -9 52 -5 67 7 32 69 194 91 236 8
16 12 31 9 34 -6 7 -49 -78 -88 -175 -27 -67 -31 -91 -33 -182 -2 -96 -6 -117
-50 -250 -68 -202 -244 -540 -281 -540 -13 0 -13 4 1 28 9 15 29 59 44 97 20
48 33 70 45 69 12 -1 13 2 7 15 -7 12 -1 26 23 56 43 53 80 115 69 115 -9 0
-138 -170 -145 -191 -2 -6 -17 -12 -33 -12 -17 -1 -35 -8 -40 -15 -15 -19 -85
-28 -85 -11 0 37 45 150 78 199 32 48 137 257 158 315 11 30 14 84 5 89 -8 5
-12 -12 -12 -54 0 -29 -125 -288 -164 -340 l-26 -35 7 30 c13 57 95 242 112
255 14 9 62 76 62 86 0 5 -11 -4 -25 -21 -18 -21 -23 -24 -18 -10 3 11 14 29
23 40 9 11 17 35 19 54 1 19 8 48 16 65 49 108 75 202 76 277 1 32 5 46 10 37
14 -21 11 11 -5 56 l-14 40 -5 -30 c-3 -16 -5 -51 -6 -79 -1 -89 -43 -245 -66
-245 -17 0 -68 -90 -91 -160 -21 -67 -42 -100 -58 -94 -18 7 -88 -69 -80 -89
3 -9 10 -17 16 -17 5 0 7 4 4 9 -8 13 42 71 61 71 8 0 20 6 27 13 15 15 46 91
46 113 0 15 71 146 77 140 3 -2 -20 -61 -61 -161 -27 -64 -60 -125 -68 -125
-5 0 -26 -17 -49 -37 -39 -35 -42 -36 -54 -19 -8 10 -12 32 -9 50 4 33 -15
116 -28 116 -4 0 -8 15 -8 33 -1 28 -2 30 -12 13 -11 -20 5 -95 24 -107 6 -4
11 -30 12 -57 1 -28 -1 -49 -5 -47 -3 3 -11 -14 -18 -36 -18 -61 -74 -161
-117 -209 -12 -14 -34 -49 -50 -79 -15 -30 -30 -49 -32 -43 -2 7 5 24 15 39
31 46 45 85 34 93 -10 5 19 132 44 195 7 18 6 18 -7 5 -13 -12 -49 -140 -72
-250 -7 -31 -45 -94 -53 -87 -3 4 4 22 16 42 24 41 25 45 12 45 -6 0 -20 -18
-32 -40 -39 -69 -59 -44 -29 36 6 15 8 29 6 32 -6 5 -10 -3 -30 -68 -8 -25
-14 -37 -15 -27 -1 10 8 45 19 78 12 34 19 63 17 66 -3 2 14 43 37 91 24 48
55 119 70 157 44 112 50 124 58 119 4 -3 8 0 8 6 0 6 5 8 10 5 6 -3 10 3 10
15 0 12 5 18 10 15 6 -3 10 -1 10 4 0 6 7 11 15 11 8 0 14 4 13 9 -2 5 9 20
25 34 15 14 27 23 27 20 0 -3 9 2 20 12 24 22 26 8 5 -42 -31 -74 -13 -55 30
32 28 57 41 93 35 99 -15 15 -12 35 11 68 26 36 17 50 -11 18 -23 -26 -22 -24
-25 -70 -2 -19 -7 -46 -13 -60 -10 -22 -10 -19 -8 20 2 25 2 37 -1 28 -5 -21
-19 -23 -27 -5 -3 6 -4 3 -3 -8 1 -13 -4 -20 -15 -20 -9 0 -20 -4 -24 -8 -4
-4 -2 -7 4 -7 7 0 12 -8 12 -17 0 -13 -3 -14 -12 -5 -7 7 -21 12 -33 11 -20 0
-20 0 0 -9 18 -8 17 -9 -7 -9 -22 -1 -26 -5 -21 -18 3 -10 3 -15 -2 -11 -4 4
-14 3 -22 -3 -20 -17 -17 4 7 52 12 22 18 45 14 51 -4 6 -3 8 3 5 6 -4 14 0
17 9 9 25 7 41 -4 24 -13 -20 -13 -11 6 77 9 45 27 93 43 117 33 49 66 124 59
132 -3 3 -11 -10 -17 -28 -6 -18 -27 -55 -45 -83 -26 -37 -40 -76 -56 -150
-21 -102 -51 -168 -58 -132 -2 9 8 63 22 120 14 56 30 130 36 164 6 35 17 82
25 104 8 23 15 49 14 58 -2 25 -39 -95 -60 -194 -11 -49 -26 -116 -34 -149 -8
-32 -18 -81 -21 -109 -4 -34 -19 -70 -45 -111 -21 -34 -39 -57 -39 -52 0 5 -7
3 -15 -4 -25 -21 -27 -6 -5 49 22 56 28 99 10 71 -23 -36 3 61 39 144 20 46
21 71 2 50 -14 -15 -47 -112 -80 -238 -37 -138 -49 -166 -62 -145 -6 10 -9 7
-9 -10 0 -20 -3 -22 -12 -13 -10 10 -15 7 -25 -10 -12 -22 -13 -21 -8 12 3 19
7 64 9 100 3 44 14 89 36 140 17 41 37 95 44 120 7 25 19 56 25 69 7 13 17 48
22 80 5 31 12 72 15 91 13 74 -8 17 -42 -111 -30 -116 -34 -126 -30 -74 4 48
3 54 -5 30 -5 -16 -13 -48 -18 -70 -5 -22 -12 -49 -16 -59 -6 -14 -5 -17 3
-12 14 8 15 5 6 -19 -6 -13 -9 -14 -16 -3 -7 9 -8 4 -4 -14 4 -16 2 -28 -4
-28 -17 0 -7 74 29 200 5 19 18 67 29 105 45 162 59 373 28 420 -11 16 -16 39
-14 54 3 14 2 40 -2 56 -6 21 -8 7 -9 -47 -1 -49 3 -78 10 -78 7 0 9 -33 5
-102 -7 -152 -13 -186 -66 -378 -39 -143 -47 -183 -59 -290 -5 -47 -12 -94
-15 -105 -3 -11 -14 -51 -24 -90 -19 -73 -39 -77 -22 -3 15 68 12 97 -15 133
l-26 33 20 44 c44 98 61 141 56 146 -2 3 -12 -11 -20 -31 -8 -21 -22 -53 -29
-72 -18 -42 -29 -46 -19 -7 10 40 61 132 93 167 40 44 49 67 59 146 5 40 15
76 23 80 7 5 10 9 6 9 -4 0 0 16 8 35 7 19 14 40 14 47 -1 14 -37 -26 -178
-193 -28 -34 -41 -43 -49 -34 -7 7 -8 17 -2 26 7 11 9 11 9 1 0 -7 5 -10 11
-7 6 4 9 29 8 57 -2 34 1 52 12 59 7 5 11 9 7 9 -5 0 1 9 13 21 13 13 18 27
13 41 -4 14 -2 18 5 14 7 -5 11 2 11 18 0 14 5 28 10 31 6 3 10 18 9 33 0 15
-3 20 -6 12 -11 -34 -49 -108 -75 -144 -16 -21 -28 -51 -28 -66 0 -30 -38
-162 -49 -170 -3 -3 -16 -25 -28 -50 -13 -25 -38 -73 -58 -108 -19 -34 -35
-66 -35 -70 1 -10 40 41 40 52 0 13 62 108 67 103 2 -2 -20 -43 -48 -90 -44
-71 -55 -83 -66 -72 -7 8 -13 36 -13 67 0 30 -5 59 -12 66 -7 7 -8 15 -1 24
24 33 43 107 42 173 -1 50 5 83 19 115 11 25 23 63 26 85 l6 40 -15 -45 c-8
-25 -24 -64 -35 -87 -14 -31 -20 -64 -20 -117 0 -53 -6 -86 -20 -117 l-21 -44
2 100 c3 178 17 275 44 311 13 17 21 34 18 37 -3 4 -19 -13 -36 -36 -16 -23
-60 -76 -97 -117 -36 -41 -75 -86 -86 -99 -10 -13 -29 -35 -41 -50 l-22 -26
-1 23 c0 13 -4 20 -10 17 -5 -3 -10 -21 -10 -40 0 -27 -7 -39 -33 -59 -19 -15
-36 -26 -39 -26 -5 0 6 65 13 80 2 3 28 31 58 63 61 63 81 94 74 113 -4 12 6
58 22 97 4 9 3 17 -3 17 -15 0 -42 -76 -42 -118 0 -33 -8 -46 -69 -106 -62
-61 -70 -74 -76 -117 -5 -38 -13 -53 -36 -70 -34 -24 -35 -24 -9 29 23 46 25
56 10 47 -6 -4 -24 -33 -41 -66 -16 -33 -46 -77 -65 -98 -20 -21 -58 -78 -86
-127 -27 -49 -47 -80 -44 -69 3 11 8 51 12 89 6 63 13 78 85 194 44 69 80 133
80 141 1 9 3 23 4 31 0 8 32 78 71 155 40 81 74 165 81 200 35 172 37 193 24
235 -7 23 -9 56 -6 73 9 43 72 203 92 233 9 15 11 24 4 24 -14 0 -52 -77 -92
-182 -24 -65 -31 -100 -31 -160 -1 -64 -3 -76 -14 -67 -11 9 -14 7 -15 -7 -1
-17 -2 -17 -6 -1 -2 9 -6 17 -8 17 -2 0 -36 -31 -74 -69 -39 -39 -71 -65 -71
-59 0 6 -10 -1 -21 -16 -30 -39 -33 -27 -9 38 12 31 20 62 17 69 -2 6 -9 -5
-16 -25 -15 -46 -71 -148 -71 -130 0 7 -4 10 -10 7 -5 -3 -10 -13 -10 -21 0
-8 5 -12 11 -9 6 4 1 -11 -10 -33 -11 -22 -26 -44 -33 -48 -6 -4 -1 9 11 30
25 39 21 63 -4 30 -8 -10 5 26 30 81 25 55 60 118 78 140 17 22 24 34 14 26
-27 -22 -22 7 23 120 40 101 60 207 60 316 0 31 10 83 25 125 26 74 27 106 2
46 -24 -57 -46 -160 -45 -215 0 -61 -15 -132 -50 -228 -13 -38 -31 -88 -39
-110 -8 -21 -26 -64 -40 -95 -14 -30 -36 -78 -48 -106 -13 -27 -38 -64 -57
-80 -19 -16 -41 -40 -50 -53 -10 -14 -18 -18 -23 -12 -3 6 -1 11 5 11 6 0 8 4
5 10 -3 5 1 20 9 32 9 12 16 29 16 37 0 21 30 51 51 51 24 0 46 33 68 105 10
33 34 84 52 113 17 29 29 55 26 58 -11 11 -65 -86 -87 -155 -24 -74 -37 -94
-56 -87 -7 3 -15 -1 -18 -9 -3 -8 -13 -18 -24 -24 -15 -8 -18 -7 -17 7 0 10 4
23 9 30 4 6 9 36 12 64 8 75 8 81 0 103 -6 16 -6 17 3 5 5 -8 12 -12 14 -10
10 12 16 100 7 105 -16 10 -11 45 10 72 22 28 18 45 -8 36 -15 -6 -15 -5 -3
10 7 9 18 14 25 10 6 -4 5 1 -2 10 -11 13 -12 30 -3 84 6 37 10 144 9 237 -2
148 0 170 15 181 9 7 88 36 175 65 86 29 195 68 242 86 190 73 283 108 435
169 88 35 185 73 215 83 30 11 118 48 195 82 77 34 176 75 219 91 89 33 320
129 381 159 60 28 67 26 48 -17z m-2100 -870 c-1 -49 -8 -108 -17 -133 -8 -26
-22 -80 -31 -120 -8 -41 -24 -113 -35 -160 -12 -47 -26 -107 -32 -135 -6 -27
-26 -77 -44 -110 -18 -33 -40 -87 -48 -119 -20 -75 -26 -80 -28 -25 -2 73 3
101 28 161 25 59 34 108 14 78 -5 -8 -10 -10 -10 -5 0 17 39 133 55 164 8 17
11 32 6 35 -15 10 -53 -86 -96 -249 -15 -55 -30 -104 -33 -110 -3 -5 -7 -16
-8 -25 -8 -44 -24 -111 -40 -155 -9 -27 -18 -76 -20 -109 -1 -32 -7 -63 -11
-67 -5 -5 -7 6 -5 26 3 21 0 35 -7 35 -6 0 -11 -6 -11 -14 0 -8 -4 -17 -9 -20
-5 -4 -7 4 -3 16 3 11 1 19 -4 16 -18 -12 -8 97 13 144 16 32 25 79 31 155 7
77 17 128 37 178 15 39 39 104 54 145 14 41 32 80 38 85 15 12 43 89 43 116 0
11 4 19 8 19 10 0 32 60 31 86 0 15 -2 14 -11 -6 -5 -14 -13 -32 -17 -40 -4
-8 -16 -42 -26 -75 -19 -62 -35 -91 -35 -63 0 8 7 35 15 58 17 47 20 90 6 75
-4 -6 -18 -50 -30 -100 -12 -49 -28 -110 -36 -135 -14 -40 -15 -41 -10 -10 3
19 7 49 10 65 4 24 3 26 -4 10 -17 -37 -40 -155 -34 -172 4 -11 3 -14 -6 -9
-8 5 -12 3 -10 -5 1 -8 1 -21 0 -29 -1 -13 -2 -13 -11 0 -5 8 -7 26 -4 40 9
37 42 155 66 235 12 39 22 88 23 110 1 22 10 81 20 132 21 105 10 98 155 101
l75 2 -2 -87z m-282 -168 c-10 -44 -35 -142 -55 -217 -20 -75 -38 -170 -41
-211 -2 -41 -10 -90 -18 -109 -12 -30 -13 -24 -12 84 1 72 -3 114 -9 111 -5
-3 -6 -1 -2 5 4 6 14 9 24 6 13 -5 14 -4 3 4 -12 9 -11 16 3 51 20 50 20 65 1
31 -8 -14 -14 -19 -15 -13 0 7 15 29 34 49 29 30 37 49 46 108 7 39 16 80 20
91 5 11 14 37 20 58 20 64 20 37 1 -48z m-3223 -134 c2 -28 8 -41 18 -41 10 0
14 -12 15 -42 0 -33 2 -38 9 -23 7 17 9 15 9 -12 1 -27 -3 -33 -19 -33 -25 0
-41 -36 -45 -103 -4 -52 -12 -70 -26 -62 -5 4 -9 1 -9 -4 0 -6 4 -11 9 -11 5
0 12 -11 15 -25 4 -14 11 -25 16 -25 6 0 10 -5 10 -11 0 -8 -5 -8 -15 1 -8 7
-15 9 -15 4 0 -5 -4 -3 -9 5 -11 17 -31 6 -31 -17 0 -15 2 -15 10 -2 9 13 10
13 10 0 0 -8 -9 -21 -19 -27 -11 -7 -21 -27 -24 -45 l-4 -33 -1 37 c-1 20 2
39 8 43 5 3 7 12 3 20 -3 9 0 22 7 30 7 8 10 15 6 15 -3 0 3 23 14 50 15 39
20 75 20 155 0 63 -4 105 -10 105 -5 0 -10 -16 -10 -35 0 -19 -4 -35 -10 -35
-5 0 -7 15 -5 33 4 28 4 29 -4 7 -5 -14 -9 -36 -10 -49 -1 -19 2 -21 13 -12
12 10 14 6 13 -23 -1 -21 -5 -32 -11 -28 -6 3 -5 -2 3 -11 14 -18 13 -26 -14
-92 l-15 -40 6 45 c8 51 8 52 6 98 -1 21 -7 32 -17 32 -8 0 -15 5 -15 10 0 6
5 10 10 10 6 0 10 11 10 24 0 14 5 37 12 53 6 15 10 34 9 42 -1 8 2 10 10 5 9
-5 10 -2 5 11 -4 11 0 26 11 38 10 11 12 17 6 13 -14 -8 -18 6 -6 17 16 17 48
-21 51 -62z m-403 -95 c-21 -32 -10 -34 16 -3 19 21 19 21 17 2 -1 -11 2 -26
7 -34 5 -10 4 -16 -3 -19 -16 -5 -15 -22 1 -22 16 0 49 -38 39 -44 -4 -2 -6
-22 -4 -43 2 -21 4 -64 4 -95 1 -31 5 -55 10 -52 10 6 9 -5 -2 -31 -5 -11 -9
-14 -9 -7 -1 7 -12 38 -26 67 -13 30 -22 63 -19 72 5 15 4 16 -6 3 -9 -12 -11
-10 -7 12 2 15 1 25 -4 23 -4 -3 -13 12 -19 32 -7 21 -20 46 -28 56 -14 16
-14 17 0 12 14 -5 17 0 16 27 -1 18 0 49 0 68 2 31 3 33 18 18 15 -14 15 -18
-1 -42z m-36 -178 c-11 -21 -11 -22 4 -9 18 14 25 4 41 -59 6 -24 6 -24 -5 -3
-12 23 -39 39 -39 23 0 -6 4 -10 9 -10 5 0 12 -11 15 -25 4 -14 11 -23 16 -20
11 7 52 -69 43 -79 -4 -3 -1 -6 5 -6 7 0 12 -5 12 -11 0 -8 -5 -8 -15 1 -8 7
-15 22 -15 33 0 11 -3 18 -6 14 -7 -6 -34 16 -34 28 0 8 -26 35 -34 35 -3 0
-2 -48 1 -107 5 -107 15 -142 32 -114 7 11 13 8 26 -12 9 -14 15 -34 12 -44
-4 -15 -5 -14 -6 3 -1 19 -31 57 -31 40 0 -17 24 -102 31 -111 4 -5 1 -28 -7
-50 -7 -22 -16 -69 -19 -105 -3 -36 -8 -77 -10 -92 -3 -16 -1 -28 4 -28 5 0
11 35 14 78 5 83 34 172 49 150 11 -18 10 -25 -8 -42 -9 -10 -11 -16 -4 -16 8
0 10 -24 6 -82 -3 -55 -2 -65 2 -31 10 70 25 82 18 13 -11 -99 -17 -129 -28
-127 -6 1 -14 -9 -18 -23 -5 -21 -8 -18 -14 21 -5 33 -12 48 -25 52 -16 4 -18
14 -14 83 2 43 8 83 13 88 6 6 10 19 9 30 0 21 0 21 -9 1 -6 -14 -9 -1 -10 45
0 36 -5 83 -10 105 -5 22 -12 114 -16 204 -5 133 -4 165 7 172 20 13 21 11 8
-13z m4456 -150 c-12 -62 -78 -253 -111 -323 -29 -62 -104 -203 -138 -260 -7
-11 -21 -35 -32 -52 -33 -56 -49 -31 -18 29 9 17 28 61 43 97 15 36 51 97 79
134 29 37 52 75 52 84 0 9 -2 14 -4 12 -10 -11 -73 -97 -89 -122 -10 -15 -22
-25 -26 -22 -5 3 -19 -12 -32 -33 l-23 -37 -9 55 c-7 41 -11 50 -17 35 -4 -11
-3 -33 1 -50 6 -19 5 -31 -1 -33 -6 -2 -8 -7 -6 -10 2 -4 -5 -15 -15 -26 -18
-18 -18 -18 -25 8 -11 45 0 171 16 188 8 8 24 26 36 39 11 13 52 51 89 84 38
33 89 81 115 108 25 26 49 47 54 47 13 0 43 35 50 58 11 34 18 26 11 -10z
m291 -295 c-3 -10 -8 -87 -12 -171 -5 -129 -4 -156 10 -177 39 -60 27 -176
-24 -236 l-29 -34 -1 40 c0 51 15 109 41 158 11 20 19 43 17 49 -3 7 -15 -10
-27 -37 -13 -28 -27 -57 -31 -66 -5 -8 -11 -46 -15 -82 -7 -67 -7 -67 -25 -44
-16 19 -17 32 -10 82 4 33 11 71 15 85 6 23 5 23 -8 8 -7 -10 -19 -56 -27
-104 -11 -79 -11 -89 4 -99 9 -7 16 -16 16 -20 0 -10 -39 -44 -70 -60 -14 -7
-38 -27 -54 -44 -44 -46 -53 -41 -49 27 3 31 8 71 13 87 4 17 9 49 9 72 0 23
10 56 22 75 38 61 99 167 99 172 0 4 -6 6 -13 6 -8 0 -22 -16 -33 -35 -18 -34
-19 -35 -26 -13 -6 20 -7 19 -6 -7 0 -45 -1 -55 -9 -55 -5 0 -7 28 -5 62 2 46
0 59 -7 48 -6 -8 -11 -42 -11 -75 0 -76 -13 -95 -92 -135 -34 -18 -68 -39 -76
-48 -7 -10 -5 -2 5 16 10 19 33 49 52 69 30 30 34 42 38 101 5 60 8 70 36 93
28 24 33 25 43 11 10 -14 12 -14 10 3 0 11 13 39 29 62 31 44 48 56 39 26 -5
-15 -4 -16 5 -3 6 8 11 23 11 32 0 15 134 178 147 178 2 0 2 -8 -1 -17z m409
-33 c-8 -16 -15 -42 -15 -57 0 -40 -28 -137 -40 -141 -12 -4 -66 -83 -91 -132
l-18 -35 -1 43 c0 35 -3 42 -19 42 -11 0 -21 6 -24 13 -8 24 123 209 146 204
7 -1 11 4 9 12 -2 11 54 81 65 81 2 0 -3 -13 -12 -30z m-4459 -64 c3 -14 1
-33 -5 -43 -9 -14 -9 -12 -5 15 4 17 3 32 0 32 -13 0 -36 -28 -36 -43 0 -9 -5
-17 -11 -19 -6 -2 -9 -13 -7 -23 4 -17 7 -14 21 15 l17 35 -5 -40 c-3 -22 -1
-53 4 -70 7 -22 10 -24 10 -10 2 18 3 17 16 -5 10 -18 10 -27 2 -32 -8 -5 -5
-9 7 -14 13 -5 16 -13 11 -31 -4 -18 -2 -23 6 -17 9 5 10 2 6 -9 -3 -9 -2 -17
3 -19 6 -2 7 -32 3 -73 l-7 -70 -17 55 c-13 43 -19 51 -25 36 -4 -10 -2 -27 4
-37 7 -10 12 -28 12 -38 0 -11 5 -23 10 -26 6 -3 10 -11 10 -18 0 -6 -7 -2
-15 9 -17 22 -20 12 -5 -16 8 -16 7 -18 -4 -14 -17 7 -28 42 -15 50 12 7 11
24 -1 24 -5 0 -10 -8 -10 -17 0 -15 -2 -16 -10 -3 -15 23 -12 2 5 -30 17 -33
13 -48 -19 -72 -19 -14 -25 -15 -29 -4 -3 7 -1 19 5 27 8 11 9 10 4 -3 -3 -10
-3 -18 1 -18 10 0 32 34 33 50 0 12 -2 12 -9 1 -11 -17 -25 68 -15 94 5 12 4
16 -4 11 -8 -5 -11 12 -10 60 2 63 3 65 15 38 17 -40 16 -18 -1 31 -9 26 -11
46 -5 57 12 22 11 37 -1 18 -8 -12 -10 -11 -10 6 0 11 5 25 12 32 8 8 9 12 1
12 -6 0 -14 -6 -17 -12 -3 -7 -3 8 0 34 4 32 15 58 33 78 32 36 39 37 47 6z
m3375 -124 c15 -74 -9 -124 -82 -172 -30 -19 -60 -41 -67 -50 -8 -8 -11 -9 -7
-2 3 6 0 12 -7 12 -7 0 8 21 34 48 35 36 51 63 68 117 11 39 25 84 31 101 5
17 10 39 11 50 0 10 3 3 5 -16 1 -19 8 -59 14 -88z m-4296 -97 c4 -36 2 -60
-6 -73 -10 -16 -9 -26 8 -55 15 -25 21 -53 22 -101 0 -37 5 -75 11 -86 5 -10
10 -29 10 -42 0 -13 7 -36 15 -52 8 -15 15 -32 15 -37 0 -5 -33 -9 -72 -9 -40
0 -68 4 -61 8 17 11 30 122 14 122 -6 0 -11 -15 -12 -32 0 -27 -3 -23 -18 27
-9 34 -15 80 -13 104 3 30 1 41 -6 37 -7 -4 -9 -20 -5 -38 5 -26 4 -30 -10
-25 -11 4 -17 1 -17 -8 0 -8 5 -15 10 -15 6 0 10 -9 10 -21 0 -11 4 -28 9 -38
6 -10 13 -41 17 -69 5 -44 4 -52 -9 -52 -24 0 -41 38 -42 90 0 25 -4 67 -9 94
-6 34 -5 47 2 42 6 -3 13 -2 16 3 4 5 2 12 -3 15 -10 6 -4 44 10 61 4 6 11 31
15 55 4 25 10 50 14 55 5 6 11 33 15 60 4 28 13 53 19 57 20 13 44 -23 51 -77z
m420 55 c-7 -33 1 -70 16 -70 5 0 9 8 10 18 0 10 3 12 6 5 2 -7 -2 -26 -10
-43 -9 -16 -13 -38 -10 -49 2 -10 0 -22 -5 -25 -6 -3 -8 -15 -5 -26 3 -11 1
-26 -5 -33 -6 -6 -16 -41 -23 -77 -11 -55 -14 -61 -20 -38 -4 14 -6 69 -5 121
1 53 -2 93 -7 90 -9 -5 1 43 15 70 5 10 13 15 17 12 5 -2 11 13 15 35 3 22 9
40 12 40 3 0 3 -13 -1 -30z m4206 -117 c-3 -52 -9 -65 -59 -133 -31 -41 -61
-79 -67 -85 -6 -5 -27 -34 -46 -62 -36 -55 -51 -67 -42 -33 3 11 1 20 -4 20
-5 0 -15 -26 -22 -57 -7 -32 -22 -74 -32 -93 -11 -19 -17 -26 -14 -15 4 11 17
62 30 113 14 56 35 113 54 140 16 26 49 78 72 115 23 37 63 86 88 107 25 22
46 40 46 40 0 0 -2 -26 -4 -57z m580 -8 c1 -22 -1 -53 -6 -69 -5 -20 -5 -27 3
-22 17 10 1 -34 -32 -89 -41 -70 -86 -157 -86 -168 0 -6 25 31 55 81 30 50 55
96 55 102 0 19 15 10 33 -21 20 -36 21 -61 6 -126 -20 -82 -18 -80 -39 -53
-17 23 -19 23 -26 7 -3 -10 -13 -16 -20 -13 -7 3 -16 -4 -19 -15 -4 -10 -11
-19 -16 -19 -23 0 -6 -18 23 -24 22 -4 37 -1 49 10 16 14 15 7 -6 -47 -14 -35
-30 -68 -35 -73 -6 -6 -10 -18 -10 -27 0 -10 -4 -20 -9 -23 -5 -3 -6 14 -4 38
4 29 0 51 -10 67 -23 36 -41 164 -29 197 13 32 39 133 79 302 7 27 24 43 35
32 4 -4 8 -25 9 -47z m-871 -29 c-5 -13 -6 -27 -2 -32 4 -4 1 -4 -5 0 -8 4
-13 1 -13 -8 0 -9 -5 -16 -11 -16 -5 0 -8 -4 -4 -10 6 -10 -63 -150 -80 -162
-21 -15 -17 3 9 36 14 19 26 41 26 49 0 8 7 20 15 27 8 7 15 16 15 20 0 11
-94 -81 -114 -112 -10 -15 -15 -31 -12 -36 3 -6 -1 -15 -9 -22 -10 -9 -15 -9
-15 -1 0 6 5 11 11 11 5 0 7 5 4 10 -4 6 2 25 13 43 11 17 35 70 53 115 26 66
38 86 58 93 14 5 33 13 41 18 22 13 30 3 20 -23z m742 -109 c-13 -15 -25 -98
-25 -161 1 -34 -8 -67 -28 -110 -16 -33 -29 -68 -30 -76 0 -8 -4 -5 -9 8 -10
23 -38 27 -52 7 -10 -14 -8 75 3 110 5 17 18 57 29 91 11 33 20 66 20 72 0 6
21 41 48 77 l47 66 3 -36 c2 -20 -1 -42 -6 -48z m-377 -24 c-18 -121 -26 -184
-28 -219 -3 -49 -16 -67 -74 -100 -35 -21 -50 -25 -83 -19 -22 4 -40 9 -40 11
0 7 31 88 41 106 5 9 5 19 0 22 -4 3 -19 -23 -32 -57 -16 -40 -30 -63 -42 -65
-16 -3 -18 1 -13 25 3 15 7 46 8 68 3 69 88 165 195 220 37 19 69 35 70 35 1
0 1 -12 -2 -27z m2973 -15 c50 -61 112 -450 109 -683 l-1 -110 47 -3 c26 -2
47 -8 47 -14 0 -6 11 -26 25 -43 18 -25 23 -41 19 -66 -3 -19 -1 -69 4 -111
10 -92 18 -87 -122 -62 l-88 16 7 93 c4 63 3 100 -5 114 -9 17 -4 41 25 128
19 58 34 108 32 109 -2 2 -21 -41 -42 -96 -34 -90 -37 -108 -32 -163 5 -60 -7
-153 -23 -171 -5 -4 -49 0 -99 9 -89 18 -91 18 -86 44 5 25 5 26 -6 4 -10 -20
-39 -33 -39 -18 0 3 20 31 44 62 23 32 48 69 55 83 l12 25 -18 -25 c-10 -13
-32 -40 -50 -59 l-32 -35 8 35 c5 18 25 76 46 128 30 75 38 109 41 175 3 69 2
73 -5 31 -19 -116 -92 -327 -133 -386 l-17 -24 0 23 c-1 24 28 88 61 135 11
16 18 30 15 33 -3 3 -20 -16 -38 -43 -18 -26 -32 -48 -30 -48 1 0 -2 -13 -8
-28 -6 -16 -11 -35 -11 -43 0 -18 -4 -18 -40 1 -31 16 -37 44 -43 182 -1 35
-6 63 -11 63 -4 0 -6 57 -4 128 5 162 18 193 108 259 61 45 68 56 125 171 53
106 114 192 136 192 3 0 11 -6 17 -12z m-1052 -108 c-3 -17 -17 -55 -32 -86
-33 -70 -28 -84 32 -84 l46 0 -4 -132 c-3 -81 -9 -143 -17 -158 -7 -14 -35
-36 -63 -49 -63 -30 -79 -61 -54 -104 17 -30 17 -31 -6 -49 -50 -38 -70 -6
-38 63 14 32 20 66 20 124 0 58 5 90 18 115 11 19 22 49 26 65 4 17 9 38 12
48 3 9 1 17 -5 17 -6 0 -11 -10 -11 -22 0 -13 -12 -48 -26 -78 -21 -43 -27
-73 -29 -140 -2 -64 -7 -95 -23 -125 l-22 -40 5 125 c7 149 13 223 21 244 3 9
2 16 -4 16 -5 0 -13 -20 -16 -44 -4 -24 -13 -52 -21 -62 -19 -26 -19 -10 4 98
17 83 22 91 77 154 33 36 70 81 84 100 31 41 34 42 26 4z m-1747 -92 c-7 -29
-18 -58 -25 -66 -8 -7 -14 -20 -14 -28 0 -8 -3 -14 -7 -15 -30 -3 -58 -11 -70
-20 -9 -8 -13 -8 -13 -1 0 6 -6 9 -14 6 -10 -4 -16 6 -21 35 -4 22 -4 45 -1
50 4 5 41 37 83 71 72 59 77 61 85 41 4 -12 3 -45 -3 -73z m495 -43 c-8 -28
-15 -72 -15 -100 0 -40 -6 -57 -29 -85 -23 -28 -28 -31 -23 -12 3 13 1 22 -6
22 -6 0 -16 -10 -22 -22 -8 -19 -9 -16 -5 17 2 22 7 49 12 59 6 15 4 17 -6 11
-8 -5 -11 -4 -7 2 3 5 7 28 8 52 3 46 29 82 29 40 0 -23 1 -22 16 6 13 26 55
68 61 61 1 -1 -5 -24 -13 -51z m456 -14 c-11 -29 -32 -100 -46 -159 -33 -141
-54 -211 -65 -218 -5 -3 -14 6 -20 19 -8 18 -6 36 10 84 11 34 21 76 22 94 3
52 100 251 115 236 3 -2 -4 -28 -16 -56z m423 -253 c-8 -77 -13 -94 -24 -77
-7 11 -9 9 -9 -8 0 -13 -27 -60 -60 -106 -52 -74 -63 -84 -85 -79 -14 2 -25 7
-25 9 0 3 19 40 43 82 49 87 60 111 48 111 -6 0 -46 -66 -100 -165 -6 -11 -11
-17 -11 -12 -1 23 84 167 117 198 41 38 103 89 108 89 2 0 1 -19 -2 -42z m185
-115 c-3 -70 -1 -125 5 -134 8 -12 3 -28 -17 -63 -48 -83 -55 -57 -35 140 10
101 29 174 45 174 3 0 4 -53 2 -117z m187 -123 c3 -5 -2 -46 -11 -90 -14 -64
-21 -79 -33 -76 -9 3 -33 8 -53 12 -36 6 -38 8 -38 44 0 32 6 43 33 62 17 12
41 30 51 40 22 20 42 23 51 8z m3460 -960 c402 -39 620 -73 845 -130 175 -45
302 -95 382 -152 15 -10 77 -32 138 -48 86 -22 132 -41 203 -83 51 -30 116
-67 144 -83 47 -26 70 -54 44 -54 -5 0 -22 -13 -38 -30 -34 -36 -62 -38 -141
-9 -31 11 -79 24 -107 27 -47 7 -50 9 -53 38 -3 27 -6 30 -31 26 -26 -3 -30 0
-36 28 -9 39 -55 94 -95 110 -27 11 -36 9 -83 -14 -70 -34 -133 -36 -143 -3
-3 12 -23 40 -43 62 -21 22 -46 55 -56 73 -12 19 -25 30 -33 27 -8 -3 -52 -8
-98 -12 -81 -6 -86 -7 -100 -35 -12 -23 -20 -29 -37 -24 -12 3 -38 6 -58 6
-57 0 -80 26 -88 95 l-6 60 -155 5 c-148 5 -155 6 -158 26 -3 21 -10 21 -225
30 l-222 9 -3 38 c-4 45 -21 44 253 17z"/>
<path d="M3991 9338 c-5 -13 -12 -39 -16 -58 -4 -19 -11 -40 -16 -45 -14 -18
-26 -207 -15 -237 6 -16 13 -28 17 -28 16 0 45 108 52 200 1 14 5 27 8 30 4 3
10 40 14 83 7 74 7 77 -14 77 -13 0 -25 -9 -30 -22z"/>
<path d="M3995 8779 c-4 -6 -13 -8 -20 -5 -7 2 -16 -2 -19 -10 -10 -27 -7 -44
9 -44 11 0 15 -11 15 -40 0 -27 -4 -40 -14 -40 -9 0 -15 -19 -19 -60 -7 -79
-1 -100 29 -100 15 0 24 -6 24 -15 0 -8 3 -15 8 -15 4 0 8 43 9 95 1 64 -1 95
-9 95 -7 0 -9 23 -4 75 7 72 4 87 -9 64z"/>
<path d="M3200 8602 c0 -45 89 -282 106 -282 21 0 26 61 10 109 -9 24 -16 50
-16 57 0 23 -70 124 -85 124 -8 0 -15 -3 -15 -8z"/>
<path d="M3307 8220 c3 -11 9 -20 14 -20 4 0 11 -20 15 -45 3 -25 10 -48 15
-51 5 -3 9 -18 9 -34 0 -16 5 -32 10 -35 6 -3 10 -15 10 -25 0 -29 57 -142 89
-177 21 -23 31 -29 40 -20 14 14 15 64 1 72 -5 3 -10 14 -10 23 0 14 -47 125
-99 230 -9 18 -26 43 -38 54 -13 12 -23 27 -23 35 0 7 -9 13 -19 13 -14 0 -18
-5 -14 -20z"/>
<path d="M5074 17253 c3 -16 9 -52 12 -80 5 -35 11 -53 20 -53 21 0 18 -6 -26
-49 -22 -22 -40 -45 -40 -52 0 -29 -29 30 -33 67 l-4 39 -1 -42 c-1 -24 -6
-43 -11 -43 -6 0 -3 -16 5 -36 11 -26 12 -40 5 -47 -15 -15 -14 -32 2 -20 20
16 43 22 57 13 18 -11 -8 -39 -32 -32 -18 4 -48 -13 -48 -29 0 -13 54 -11 68
3 9 9 15 9 23 1 14 -14 2 -36 -16 -29 -8 3 -12 -4 -12 -18 0 -15 5 -23 15 -22
8 0 17 -5 19 -12 3 -8 -1 -10 -13 -5 -15 6 -15 4 2 -13 19 -19 19 -18 36 36
20 63 21 71 8 50 -15 -24 -21 -6 -7 23 6 15 18 25 25 22 18 -7 42 5 42 21 0 8
7 14 15 14 12 0 15 -16 15 -80 0 -79 0 -80 25 -80 23 0 25 -4 25 -41 0 -28 -6
-46 -17 -55 -15 -10 -16 -15 -5 -26 11 -11 15 -10 23 5 6 9 19 17 29 17 10 0
22 5 25 10 3 6 17 10 30 10 13 0 44 9 70 20 27 12 69 20 99 20 43 0 56 -4 74
-25 12 -14 22 -30 22 -35 0 -10 2 -11 37 -15 15 -2 22 4 26 21 5 30 -14 94
-29 94 -13 0 -25 72 -14 80 3 3 10 13 13 23 11 28 31 15 43 -29 10 -36 11 -37
17 -14 7 29 -13 96 -28 95 -5 0 -11 17 -13 38 -2 25 -9 40 -20 44 -24 9 -58
56 -67 93 0 3 -7 16 -15 30 -7 14 -12 46 -11 72 l2 48 -237 0 -236 0 6 -27z"/>
<path d="M6340 17277 c0 -2 9 -30 19 -62 11 -33 17 -63 14 -69 -3 -5 -7 -21
-8 -35 -1 -14 -3 -34 -3 -43 -1 -10 -7 -18 -12 -18 -7 0 -9 14 -5 38 5 27 4
33 -4 22 -14 -20 -14 -70 0 -70 8 0 10 -41 7 -139 -2 -77 0 -137 4 -135 5 3 8
-5 8 -18 0 -28 15 -48 53 -72 20 -12 26 -22 22 -36 -7 -22 24 -43 49 -34 9 3
16 2 16 -4 0 -6 14 -13 30 -17 20 -4 30 -13 30 -25 0 -20 28 -30 105 -36 28
-3 56 -5 63 -6 6 -1 12 -7 12 -15 0 -7 -6 -13 -12 -13 -9 0 -10 -3 -2 -8 6 -4
14 -14 17 -22 4 -11 6 -10 6 5 1 11 12 49 25 85 14 36 34 99 45 140 23 83 73
380 70 414 0 11 0 23 1 26 1 3 7 30 14 60 7 30 16 63 21 73 7 16 -11 17 -289
17 -163 0 -296 -2 -296 -3z"/>
<path d="M8910 17265 c0 -10 10 -15 30 -15 54 0 32 -17 -45 -35 -86 -21 -131
-45 -147 -80 -6 -13 -19 -27 -29 -30 -23 -8 -61 -54 -53 -66 3 -5 39 -9 80 -9
41 0 74 -3 74 -7 0 -5 -13 -22 -28 -39 -39 -46 -59 -69 -136 -164 -38 -47 -74
-89 -80 -95 -6 -5 -27 -32 -46 -60 -19 -27 -40 -57 -47 -65 -51 -64 -167 -218
-206 -275 -26 -39 -81 -117 -122 -175 -95 -134 -187 -279 -193 -305 -3 -15 2
-12 18 10 l21 30 -5 -35 c-3 -19 -3 -29 0 -22 3 6 21 12 41 12 26 0 36 -5 40
-19 4 -15 71 -58 77 -49 2 2 17 30 36 63 72 131 254 336 425 480 39 32 75 63
80 69 26 29 156 137 205 171 30 21 80 60 111 86 31 27 60 49 63 49 4 0 17 11
30 25 13 14 26 25 29 25 3 0 26 13 50 30 79 53 169 100 179 94 5 -4 7 -20 4
-36 -5 -27 -4 -29 17 -22 12 3 54 21 92 39 39 18 94 36 123 40 43 6 52 10 52
27 0 11 7 26 15 34 27 27 17 34 -37 29 -47 -5 -91 6 -77 19 8 8 145 10 158 2
6 -4 11 -18 11 -32 0 -27 3 -28 33 -13 62 32 105 94 116 167 3 25 11 47 18 49
7 3 29 -14 50 -36 43 -47 73 -54 73 -17 0 14 10 32 22 40 28 20 48 20 48 1 0
-8 11 -22 25 -31 22 -14 30 -15 53 -4 15 8 31 13 36 11 4 -1 14 3 22 10 7 6
17 8 22 5 6 -3 15 8 22 25 10 22 17 28 29 23 9 -4 43 -10 76 -12 33 -2 68 -10
79 -18 40 -28 96 -5 96 39 0 14 -10 17 -51 17 -60 0 -89 13 -89 40 0 18 -7 20
-84 20 -47 0 -88 -4 -91 -10 -3 -5 -19 -10 -36 -10 -16 0 -29 5 -29 10 0 7
-215 10 -625 10 -549 0 -625 -2 -625 -15z"/>
<path d="M11300 17272 c0 -28 23 -108 36 -123 17 -20 18 -43 2 -57 -24 -19
-143 -43 -238 -48 l-96 -5 -18 41 c-12 27 -16 54 -13 76 3 19 2 32 -3 29 -4
-3 -10 -1 -12 5 -4 12 -22 14 -125 12 l-81 -2 -19 -52 c-12 -36 -17 -79 -16
-131 1 -73 -1 -78 -22 -83 -13 -3 -32 -1 -43 5 -12 6 -51 17 -89 25 -37 8 -75
17 -83 20 -8 4 -26 -4 -41 -18 -14 -13 -39 -31 -55 -39 -35 -18 -62 -90 -43
-113 9 -11 16 -11 40 2 20 10 53 14 95 13 59 -2 67 -5 75 -26 15 -41 12 -55
-10 -43 -11 5 -26 10 -33 10 -24 0 -62 -62 -64 -103 -1 -26 -8 -43 -23 -53
-19 -14 -24 -13 -49 4 -29 21 -111 62 -123 62 -4 0 -9 -15 -11 -32 -4 -26 -34
-120 -45 -137 -1 -2 -26 -5 -56 -7 -56 -3 -142 -32 -101 -33 11 -1 25 -6 32
-13 9 -9 16 -8 30 5 27 25 60 21 93 -12 19 -20 29 -40 29 -60 0 -24 4 -31 20
-31 23 0 28 37 9 72 -6 11 -8 22 -5 25 9 10 77 -19 89 -38 14 -23 43 -24 83
-5 16 8 41 19 57 25 37 14 41 64 6 89 -29 20 -23 32 15 32 27 0 36 5 44 28 7
15 10 36 9 47 -2 16 5 21 33 23 60 5 66 10 41 35 -11 13 -21 26 -21 30 0 4 35
7 78 7 67 0 85 4 143 33 62 32 65 32 61 12 -2 -15 3 -24 20 -32 l23 -11 -30
-12 c-16 -7 -68 -18 -115 -25 -47 -7 -76 -13 -64 -14 11 0 35 -16 52 -34 l32
-33 -52 -12 c-63 -15 -88 -1 -37 22 l34 14 -69 1 c-66 1 -68 0 -63 -21 3 -13
9 -41 13 -62 6 -36 5 -39 -15 -33 -11 3 -21 1 -21 -3 0 -7 20 -17 50 -25 3 -1
12 -5 21 -9 11 -5 25 1 42 16 14 13 36 29 49 35 107 49 158 76 158 83 0 4 8
11 18 15 12 4 25 -3 45 -26 27 -33 37 -26 17 12 -7 12 -7 19 -1 19 5 0 11 6
14 13 2 6 2 0 0 -15 -2 -14 1 -29 6 -33 6 -3 8 -17 5 -29 -8 -33 39 -71 67
-53 15 9 21 9 27 0 5 -8 22 -3 57 17 28 16 64 36 82 45 36 19 72 55 54 55 -6
0 -14 -7 -17 -15 -8 -21 -34 -19 -34 3 1 29 23 50 45 41 19 -7 19 -8 -2 -8
-23 -1 -40 -18 -29 -28 4 -4 12 -1 18 5 32 32 52 -12 28 -59 -18 -32 28 -97
65 -91 15 2 17 1 6 -6 -11 -8 -9 -11 8 -17 13 -4 25 -4 28 -1 4 3 1 6 -6 6 -7
0 -9 5 -6 10 3 6 21 10 38 10 18 0 41 8 52 17 19 15 19 15 -5 8 -14 -4 -48
-10 -76 -12 -44 -4 -55 -1 -73 18 -28 30 -27 52 4 85 20 22 25 24 25 9 0 -11
5 -15 15 -11 9 3 15 -1 15 -11 0 -12 -7 -14 -30 -9 -26 5 -30 3 -29 -17 0 -12
3 -16 6 -9 2 6 15 12 28 12 29 0 48 23 40 50 -5 15 -2 20 11 20 10 0 15 3 11
6 -9 10 -48 -7 -41 -18 4 -5 -5 -3 -19 6 -20 13 -26 14 -30 4 -4 -10 -6 -10
-6 1 -1 7 -11 22 -23 32 l-21 19 34 1 c31 2 32 2 6 6 -22 3 -27 9 -23 21 4 11
-1 9 -13 -6 -11 -13 -24 -23 -28 -22 -11 0 -33 -20 -61 -54 -12 -16 -24 -27
-27 -24 -3 2 4 14 14 25 12 12 18 29 15 40 -3 11 2 25 10 32 24 20 20 26 -20
28 -44 2 -60 15 -49 40 5 10 7 21 7 26 -1 4 5 7 13 7 8 0 15 5 15 10 0 6 -7
10 -16 10 -11 0 -14 6 -8 23 10 32 12 33 34 9 12 -12 28 -22 38 -22 9 0 24 -5
32 -10 11 -7 5 -8 -20 -4 -27 4 -31 3 -20 -5 19 -13 82 -11 93 3 5 8 9 8 15 0
8 -12 43 -28 55 -25 5 1 5 -8 2 -20 -5 -15 -3 -20 6 -17 7 2 13 18 14 34 0 25
4 30 35 35 l35 6 -42 2 c-24 0 -43 5 -43 10 0 5 8 8 18 7 9 0 16 5 15 12 -2 6
2 12 8 12 6 0 9 -7 5 -15 -4 -11 2 -15 27 -15 24 0 28 3 17 10 -16 10 -7 12
70 13 31 1 35 -2 32 -23 -2 -24 -2 -24 12 -5 8 11 12 24 8 29 -3 5 2 7 11 3 9
-3 19 -2 22 3 4 6 15 10 26 10 20 0 20 0 -1 30 -12 17 -16 30 -10 30 6 0 9 4
5 9 -3 5 -1 12 4 15 11 7 3 76 -11 91 -5 6 -6 -10 -3 -40 5 -40 4 -48 -6 -37
-7 6 -30 12 -50 12 -47 0 -56 13 -28 41 15 15 20 29 15 50 -3 16 -1 31 6 35 7
4 8 3 4 -4 -4 -8 -2 -10 8 -6 12 5 17 -5 22 -45 4 -28 11 -51 16 -51 5 0 7 8
5 18 -3 9 -8 34 -11 54 -5 26 -13 39 -29 43 -42 13 -77 30 -77 39 0 4 -9 6
-20 3 -16 -4 -20 -2 -15 12 3 9 -1 26 -9 37 -12 15 -17 17 -27 7 -11 -11 -10
-15 0 -25 12 -11 13 -9 7 7 -5 14 -4 17 3 10 16 -16 1 -55 -21 -55 -10 0 -17
-4 -14 -9 3 -5 26 -6 51 -3 30 3 45 1 45 -7 0 -6 10 -11 21 -11 18 0 19 -2 9
-15 -7 -8 -20 -15 -29 -15 -13 0 -13 2 -2 9 11 7 10 11 -7 20 -36 19 -62 14
-62 -12 0 -29 7 -37 26 -30 20 8 17 23 -3 17 -16 -5 -16 -4 0 6 25 16 33 5 18
-23 -9 -17 -20 -22 -49 -22 l-37 0 1 47 c0 26 -3 45 -8 42 -4 -3 -8 -11 -8
-19 0 -7 -7 -15 -15 -19 -8 -3 -15 -1 -15 3 0 5 6 11 13 14 9 3 9 7 -2 20 -15
19 -3 67 25 98 14 16 13 17 -20 17 -33 0 -35 -2 -39 -36 l-4 -37 -1 38 c-1 20
-6 37 -12 37 -5 0 -10 -6 -10 -12 0 -9 -4 -8 -10 2 -7 11 -10 11 -10 2z m-234
-499 c28 -12 34 -18 22 -21 -24 -5 -23 -49 1 -62 11 -5 33 -10 48 -10 45 0 53
-15 31 -60 -11 -22 -17 -45 -15 -52 4 -8 8 -5 12 9 4 13 11 20 17 17 5 -3 20
2 33 10 14 9 25 12 25 7 0 -11 -50 -45 -50 -34 0 5 -5 1 -10 -9 -7 -12 -23
-16 -57 -15 -27 0 -42 2 -35 5 10 3 10 7 1 18 -7 9 -10 32 -6 60 3 30 1 42 -5
36 -11 -11 -56 8 -69 30 -10 16 -12 72 -2 81 9 10 16 9 59 -10z"/>
<path d="M16219 17187 c-8 -7 -26 -21 -41 -31 -15 -10 -25 -23 -21 -29 3 -6 1
-7 -5 -3 -10 6 -82 -56 -82 -71 0 -3 3 -4 6 0 12 11 64 -60 64 -87 0 -20 40
-30 92 -23 54 7 60 15 43 62 -20 56 -19 64 10 71 38 10 30 24 -15 24 -41 0
-63 20 -52 49 3 9 0 11 -8 6 -9 -5 -11 -4 -6 3 4 7 25 12 47 12 28 0 39 4 37
13 -6 17 -53 21 -69 4z"/>
<path d="M1690 16946 c0 -8 5 -18 10 -21 15 -9 12 -25 -4 -25 -7 0 -24 -26
-36 -57 -12 -32 -31 -80 -42 -108 -12 -27 -24 -63 -29 -78 -8 -28 -7 -28 24
-22 75 16 234 111 257 155 12 23 2 30 -80 54 -82 24 -88 29 -56 57 14 12 25
32 25 43 -1 17 -2 18 -6 4 -5 -22 -33 -24 -33 -3 0 8 -7 15 -15 15 -8 0 -15
-6 -15 -14z"/>
<path d="M9688 16520 c-9 -14 -19 -18 -38 -14 -20 5 -22 3 -10 -6 12 -10 11
-11 -9 -7 -30 7 -71 -9 -88 -33 -14 -20 -40 -29 -28 -10 3 6 3 10 0 10 -12 0
-80 -50 -81 -60 -1 -6 -2 -14 -3 -20 0 -5 -6 -10 -12 -10 -6 0 -9 7 -5 15 4
12 2 13 -14 2 -23 -14 -26 -27 -6 -27 21 0 30 -20 17 -33 -8 -8 -11 -6 -11 6
0 9 -5 17 -11 17 -6 0 -9 -7 -5 -15 3 -8 0 -15 -5 -15 -6 0 -9 9 -6 20 3 11 2
20 -2 20 -9 0 -53 -30 -66 -44 -5 -6 -34 -27 -63 -45 -35 -22 -51 -39 -48 -48
3 -8 1 -11 -4 -8 -10 6 -40 -7 -62 -28 -7 -7 -47 -35 -88 -62 -41 -28 -78 -55
-82 -61 -4 -6 -26 -24 -50 -40 -24 -16 -48 -33 -54 -39 -6 -5 -25 -21 -43 -35
-18 -14 -41 -32 -52 -41 -11 -9 -34 -23 -52 -30 -17 -7 -54 -28 -81 -46 -26
-18 -52 -33 -56 -33 -20 0 -201 -103 -191 -110 7 -3 -1 -7 -16 -7 -18 0 -41
-12 -63 -32 -29 -27 -30 -30 -8 -16 34 21 90 14 121 -16 11 -10 30 -19 41 -19
25 0 52 -51 41 -78 -4 -12 0 -11 18 6 13 12 26 22 30 22 10 0 86 51 113 75 40
36 52 44 58 38 3 -4 6 -2 6 3 0 5 18 20 39 33 26 16 37 30 34 40 -3 11 -2 12
4 4 7 -10 19 -9 56 5 25 10 49 21 53 25 4 4 14 7 23 7 21 0 138 60 120 61 -17
1 33 17 76 24 41 8 125 35 125 42 0 3 -11 3 -24 1 -14 -3 -30 -1 -37 3 -8 5 7
10 39 15 42 5 52 10 52 25 0 13 7 19 22 19 20 0 21 -1 3 -20 -22 -25 -6 -26
38 -3 26 14 28 18 14 21 -12 2 -16 9 -13 19 5 13 0 14 -31 9 -30 -4 -33 -4
-15 4 12 5 22 14 22 20 0 5 9 10 20 10 13 0 20 -7 20 -19 0 -24 33 -36 57 -21
15 9 14 9 -7 5 -24 -6 -25 -5 -22 40 4 40 7 45 28 45 21 0 29 -10 25 -32 -1
-10 12 -10 33 -2 13 5 14 9 5 20 -6 8 -18 14 -25 14 -10 0 -14 13 -14 40 0 36
-2 40 -25 40 -22 0 -25 4 -25 40 0 37 2 40 26 40 26 0 27 1 22 58 -3 31 -3 49
-1 40 3 -13 15 -18 44 -18 39 0 39 0 39 39 0 29 -5 41 -17 44 -11 2 2 9 30 17
33 8 52 20 57 34 8 19 9 19 9 -6 1 -16 -3 -28 -9 -28 -5 0 -10 -4 -10 -10 0
-5 11 -10 25 -10 21 0 25 5 26 33 1 30 1 30 9 7 7 -23 7 -23 11 10 l4 35 52
-1 c46 -1 50 0 37 14 -11 11 -18 12 -27 3 -6 -6 -18 -11 -26 -11 -11 0 -6 9
14 25 23 18 26 24 13 25 -10 0 -23 -9 -30 -20z"/>
<path d="M14528 15988 c-14 -20 -99 -43 -128 -33 -8 3 -1 -7 15 -22 17 -15 22
-24 13 -20 -11 4 -18 2 -18 -6 0 -8 -3 -8 -9 2 -5 8 -19 12 -35 9 -14 -3 -26
-2 -26 1 0 9 -140 34 -147 27 -4 -3 -1 -6 5 -6 7 0 12 -7 12 -16 0 -8 -4 -13
-8 -10 -18 11 -73 16 -67 6 3 -6 0 -7 -9 -4 -9 3 -16 1 -16 -4 0 -6 8 -13 18
-16 9 -3 5 -4 -9 -2 -22 2 -25 -1 -21 -21 5 -25 18 -29 42 -13 13 9 13 10 0
10 -12 1 -11 3 3 11 9 6 15 14 12 19 -3 5 0 12 6 16 8 5 9 3 4 -6 -6 -10 -4
-12 10 -6 18 7 18 6 0 -14 -10 -11 -15 -20 -11 -20 15 0 66 45 66 57 0 8 5 11
10 8 6 -3 10 -15 10 -25 0 -30 30 -40 68 -25 17 8 32 11 32 7 0 -4 4 -2 8 5 5
8 13 9 22 3 13 -8 12 -10 -2 -10 -11 0 -18 -8 -18 -20 0 -13 7 -20 19 -20 26
0 36 17 14 23 -10 2 -4 5 12 5 17 1 37 2 45 3 8 1 33 -1 55 -5 30 -5 35 -4 20
4 l-20 10 20 -3 c11 -1 20 -7 20 -12 0 -14 53 -64 60 -57 3 4 3 -1 -1 -11 -3
-9 -2 -17 3 -17 15 0 36 45 37 79 1 16 5 29 11 28 18 -3 16 39 -2 60 -10 12
-39 28 -65 36 -45 15 -47 14 -60 -5z"/>
<path d="M15024 15969 c-21 -11 -43 -26 -49 -33 -5 -6 -21 -20 -35 -29 l-24
-17 27 0 c16 0 37 5 48 10 24 13 26 -6 3 -38 -8 -12 -12 -27 -9 -32 3 -6 -2
-10 -13 -10 -13 0 -24 -13 -35 -40 -14 -37 -14 -39 1 -31 10 5 21 9 26 8 18
-1 77 56 96 93 27 54 36 113 18 128 -11 9 -23 7 -54 -9z"/>
<path d="M15922 15913 c22 -25 31 -70 16 -75 -7 -3 -31 -1 -53 3 -46 8 -58 3
-33 -15 10 -8 15 -20 12 -33 -6 -21 18 -53 40 -53 7 0 21 9 31 20 10 11 24 20
31 20 21 0 24 15 9 43 -16 32 -11 37 34 37 33 0 37 2 35 27 -1 25 -4 26 -52
28 -29 1 -55 5 -59 8 -15 15 -25 6 -11 -10z"/>
<path d="M5380 15666 c0 -8 -6 -16 -14 -19 -8 -3 -34 -18 -58 -34 -23 -15 -72
-44 -108 -64 -36 -19 -64 -41 -62 -47 1 -7 -2 -12 -8 -12 -6 0 -10 4 -10 9 0
4 -18 3 -40 -2 -22 -6 -40 -15 -40 -19 0 -4 -8 -8 -18 -8 -9 0 -29 -11 -43
-24 -19 -17 -30 -21 -37 -14 -13 13 -72 -11 -72 -29 0 -23 49 -27 71 -7 12 11
24 18 28 18 3 -1 17 3 30 8 14 5 44 12 68 15 24 3 43 10 43 14 0 5 -5 9 -11 9
-5 0 -8 4 -5 8 3 5 18 7 35 4 19 -3 35 2 48 15 10 10 30 20 43 21 45 7 145 76
134 93 -3 5 2 6 10 3 10 -4 16 -1 16 9 0 8 4 17 9 19 4 2 12 13 15 26 6 16 3
22 -8 22 -9 0 -16 -6 -16 -14z"/>
<path d="M14215 15514 c16 -24 16 -27 -1 -45 -16 -18 -16 -19 5 -19 15 0 20 4
15 13 -4 6 2 4 13 -5 22 -20 117 -25 128 -8 3 6 17 10 30 10 15 0 26 7 30 20
7 23 -2 43 -18 37 -7 -2 -18 2 -25 10 -8 7 -19 10 -25 6 -15 -9 -136 -10 -130
0 2 4 -6 7 -18 7 -21 0 -21 -1 -4 -26z"/>
<path d="M15695 15530 c4 -6 25 -20 48 -31 23 -12 43 -22 44 -23 2 -2 -11 -40
-27 -85 -24 -64 -28 -86 -19 -97 19 -23 43 -16 83 25 l39 39 -23 47 c-28 59
-64 102 -101 120 -33 17 -53 19 -44 5z"/>
<path d="M14435 15429 c-27 -16 -79 -38 -115 -50 -36 -12 -68 -26 -71 -31 -3
-5 -10 -9 -15 -8 -18 3 -14 -19 5 -25 33 -10 81 -73 81 -105 0 -29 1 -30 49
-30 41 0 50 3 54 21 7 25 33 20 29 -6 -3 -13 1 -16 14 -11 14 5 313 10 341 5
4 -1 16 -1 26 0 20 1 16 28 -15 98 -23 51 -46 60 -107 38 -59 -20 -79 -19
-157 10 -36 14 -76 25 -88 25 -19 1 -19 2 -3 11 9 6 15 15 11 20 -3 5 -2 8 3
7 17 -6 56 31 50 46 -9 22 -34 18 -92 -15z"/>
<path d="M16139 15297 c-14 -12 -38 -31 -53 -42 -47 -34 -66 -52 -66 -63 0 -6
42 -10 108 -11 l107 -1 -37 35 c-21 19 -38 39 -38 45 0 5 14 17 30 27 17 9 30
21 30 25 0 17 -56 6 -81 -15z"/>
<path d="M3244 14531 c16 -17 48 -43 70 -58 23 -15 43 -30 46 -33 3 -3 22 -14
43 -25 20 -11 37 -22 37 -26 0 -4 15 -9 33 -13 17 -3 68 -17 112 -30 112 -35
220 -47 353 -38 l114 7 -71 71 c-57 58 -79 73 -109 77 -20 2 -48 7 -62 11 -14
4 -50 11 -80 16 -30 5 -93 16 -140 25 -78 15 -148 24 -315 41 l-60 7 29 -32z"/>
<path d="M2698 12758 c-10 -10 -18 -22 -18 -28 0 -5 -4 -10 -10 -10 -5 0 -10
-7 -10 -15 0 -8 5 -15 10 -15 6 0 13 7 16 15 6 14 34 22 34 9 0 -3 -11 -19
-25 -36 -14 -16 -25 -37 -26 -46 0 -9 -3 -29 -5 -44 -4 -23 -1 -28 16 -28 11
0 20 -4 20 -10 0 -5 6 -10 14 -10 15 0 41 63 52 125 7 37 6 39 -10 26 -20 -17
-22 -15 -31 27 -8 38 5 42 29 10 l16 -23 -2 29 c-4 38 -44 52 -70 24z"/>
<path d="M4606 11503 c-3 -10 -8 -45 -12 -78 -3 -33 -12 -76 -19 -95 -7 -19
-16 -56 -19 -81 -3 -26 -12 -66 -21 -90 -18 -53 -19 -99 -3 -134 13 -29 28
-33 28 -8 0 16 20 78 40 128 11 25 26 224 22 288 -1 27 2 47 8 47 5 0 10 9 10
20 0 25 -27 27 -34 3z"/>
<path d="M16193 9824 c16 -15 54 -40 84 -56 30 -16 77 -45 104 -64 75 -52 207
-119 217 -109 15 14 -32 62 -92 95 -36 20 -77 46 -91 58 -14 12 -32 22 -39 22
-8 0 -17 4 -20 9 -4 5 -31 17 -61 26 -30 10 -55 22 -55 27 0 6 -7 8 -15 5 -8
-4 -17 -2 -20 3 -4 6 -14 10 -23 10 -13 0 -10 -6 11 -26z"/>
<path d="M16700 9521 c-72 -10 -77 -19 -34 -55 39 -32 59 -45 104 -68 14 -7
33 -23 43 -35 22 -27 39 -30 35 -5 -2 13 3 17 25 15 22 -1 27 2 27 21 0 28
-81 109 -112 111 -12 1 -24 7 -26 13 -2 7 -7 11 -10 11 -4 -1 -27 -5 -52 -8z"/>
</g>
</svg>
